<svg xmlns="http://www.w3.org/2000/svg" xmlns:xlink="http://www.w3.org/1999/xlink" width="3721pt" height="723pt" viewBox="0.00 0.00 3720.91 723.20">
<g id="graph0" class="graph" transform="scale(1 1) rotate(0) translate(4 719.2)">
<title>Tree</title>
<polygon fill="white" stroke="none" points="-4,4 -4,-719.2 3716.91,-719.2 3716.91,4 -4,4"/>
<!-- 0 -->
<g id="node1" class="node">
<title>0</title>
<path fill="#ea9b61" stroke="black" d="M1882.48,-715.2C1882.48,-715.2 1771,-715.2 1771,-715.2 1765,-715.2 1759,-709.2 1759,-703.2 1759,-703.2 1759,-635.2 1759,-635.2 1759,-629.2 1765,-623.2 1771,-623.2 1771,-623.2 1882.48,-623.2 1882.48,-623.2 1888.48,-623.2 1894.48,-629.2 1894.48,-635.2 1894.48,-635.2 1894.48,-703.2 1894.48,-703.2 1894.48,-709.2 1888.48,-715.2 1882.48,-715.2"/>
<text text-anchor="start" x="1778.88" y="-698.6" font-family="Helvetica,sans-Serif" font-size="14.00">Tenure ≤ -1.03</text>
<text text-anchor="start" x="1794.24" y="-681.8" font-family="Helvetica,sans-Serif" font-size="14.00">gini = 0.28</text>
<text text-anchor="start" x="1777.12" y="-665" font-family="Helvetica,sans-Serif" font-size="14.00">samples = 3941</text>
<text text-anchor="start" x="1767" y="-648.2" font-family="Helvetica,sans-Serif" font-size="14.00">value = [3277, 664]</text>
<text text-anchor="start" x="1798.92" y="-631.4" font-family="Helvetica,sans-Serif" font-size="14.00">class = 0</text>
</g>
<!-- 1 -->
<g id="node2" class="node">
<title>1</title>
<path fill="#f2f8fd" stroke="black" d="M1481.55,-587.2C1481.55,-587.2 1375.93,-587.2 1375.93,-587.2 1369.93,-587.2 1363.93,-581.2 1363.93,-575.2 1363.93,-575.2 1363.93,-507.2 1363.93,-507.2 1363.93,-501.2 1369.93,-495.2 1375.93,-495.2 1375.93,-495.2 1481.55,-495.2 1481.55,-495.2 1487.55,-495.2 1493.55,-501.2 1493.55,-507.2 1493.55,-507.2 1493.55,-575.2 1493.55,-575.2 1493.55,-581.2 1487.55,-587.2 1481.55,-587.2"/>
<text text-anchor="start" x="1371.93" y="-570.6" font-family="Helvetica,sans-Serif" font-size="14.00">Complain ≤ 0.486</text>
<text text-anchor="start" x="1392.35" y="-553.8" font-family="Helvetica,sans-Serif" font-size="14.00">gini = 0.499</text>
<text text-anchor="start" x="1383.02" y="-537" font-family="Helvetica,sans-Serif" font-size="14.00">samples = 858</text>
<text text-anchor="start" x="1372.89" y="-520.2" font-family="Helvetica,sans-Serif" font-size="14.00">value = [414, 444]</text>
<text text-anchor="start" x="1400.92" y="-503.4" font-family="Helvetica,sans-Serif" font-size="14.00">class = 1</text>
</g>
<!-- 0&#45;&gt;1 -->
<g id="edge1" class="edge">
<title>0-&gt;1</title>
<path fill="none" stroke="black" d="M1758.77,-646.68C1688.09,-624.31 1577.72,-589.36 1504.33,-566.13"/>
<polygon fill="black" stroke="black" points="1505.82,-562.93 1495.23,-563.25 1503.7,-569.6 1505.82,-562.93"/>
<text text-anchor="middle" x="1505.3" y="-580.78" font-family="Helvetica,sans-Serif" font-size="14.00">True</text>
</g>
<!-- 28 -->
<g id="node29" class="node">
<title>28</title>
<path fill="#e78b48" stroke="black" d="M2284.17,-587.2C2284.17,-587.2 2165.31,-587.2 2165.31,-587.2 2159.31,-587.2 2153.31,-581.2 2153.31,-575.2 2153.31,-575.2 2153.31,-507.2 2153.31,-507.2 2153.31,-501.2 2159.31,-495.2 2165.31,-495.2 2165.31,-495.2 2284.17,-495.2 2284.17,-495.2 2290.17,-495.2 2296.17,-501.2 2296.17,-507.2 2296.17,-507.2 2296.17,-575.2 2296.17,-575.2 2296.17,-581.2 2290.17,-587.2 2284.17,-587.2"/>
<text text-anchor="start" x="2161.31" y="-570.6" font-family="Helvetica,sans-Serif" font-size="14.00">TotalSpent ≤ -1.097</text>
<text text-anchor="start" x="2188.35" y="-553.8" font-family="Helvetica,sans-Serif" font-size="14.00">gini = 0.133</text>
<text text-anchor="start" x="2175.12" y="-537" font-family="Helvetica,sans-Serif" font-size="14.00">samples = 3083</text>
<text text-anchor="start" x="2165" y="-520.2" font-family="Helvetica,sans-Serif" font-size="14.00">value = [2863, 220]</text>
<text text-anchor="start" x="2196.92" y="-503.4" font-family="Helvetica,sans-Serif" font-size="14.00">class = 0</text>
</g>
<!-- 0&#45;&gt;28 -->
<g id="edge28" class="edge">
<title>0-&gt;28</title>
<path fill="none" stroke="black" d="M1894.71,-646.68C1963.27,-624.98 2069.19,-591.45 2142.46,-568.25"/>
<polygon fill="black" stroke="black" points="2143.1,-571.72 2151.58,-565.36 2140.99,-565.04 2143.1,-571.72"/>
<text text-anchor="middle" x="2141.5" y="-582.89" font-family="Helvetica,sans-Serif" font-size="14.00">False</text>
</g>
<!-- 2 -->
<g id="node3" class="node">
<title>2</title>
<path fill="#f5d0b5" stroke="black" d="M875.95,-459.2C875.95,-459.2 713.53,-459.2 713.53,-459.2 707.53,-459.2 701.53,-453.2 701.53,-447.2 701.53,-447.2 701.53,-379.2 701.53,-379.2 701.53,-373.2 707.53,-367.2 713.53,-367.2 713.53,-367.2 875.95,-367.2 875.95,-367.2 881.95,-367.2 887.95,-373.2 887.95,-379.2 887.95,-379.2 887.95,-447.2 887.95,-447.2 887.95,-453.2 881.95,-459.2 875.95,-459.2"/>
<text text-anchor="start" x="709.53" y="-442.6" font-family="Helvetica,sans-Serif" font-size="14.00">NumberOfAddress ≤ 0.115</text>
<text text-anchor="start" x="758.35" y="-425.8" font-family="Helvetica,sans-Serif" font-size="14.00">gini = 0.474</text>
<text text-anchor="start" x="749.02" y="-409" font-family="Helvetica,sans-Serif" font-size="14.00">samples = 550</text>
<text text-anchor="start" x="738.89" y="-392.2" font-family="Helvetica,sans-Serif" font-size="14.00">value = [338, 212]</text>
<text text-anchor="start" x="766.92" y="-375.4" font-family="Helvetica,sans-Serif" font-size="14.00">class = 0</text>
</g>
<!-- 1&#45;&gt;2 -->
<g id="edge2" class="edge">
<title>1-&gt;2</title>
<path fill="none" stroke="black" d="M1363.57,-527.25C1253.77,-505.43 1031.01,-461.16 899.18,-434.96"/>
<polygon fill="black" stroke="black" points="900.26,-431.6 889.77,-433.09 898.89,-438.47 900.26,-431.6"/>
</g>
<!-- 17 -->
<g id="node18" class="node">
<title>17</title>
<path fill="#7abdee" stroke="black" d="M1512.28,-459.2C1512.28,-459.2 1345.2,-459.2 1345.2,-459.2 1339.2,-459.2 1333.2,-453.2 1333.2,-447.2 1333.2,-447.2 1333.2,-379.2 1333.2,-379.2 1333.2,-373.2 1339.2,-367.2 1345.2,-367.2 1345.2,-367.2 1512.28,-367.2 1512.28,-367.2 1518.28,-367.2 1524.28,-373.2 1524.28,-379.2 1524.28,-379.2 1524.28,-447.2 1524.28,-447.2 1524.28,-453.2 1518.28,-459.2 1512.28,-459.2"/>
<text text-anchor="start" x="1341.2" y="-442.6" font-family="Helvetica,sans-Serif" font-size="14.00">NumberOfAddress ≤ -0.275</text>
<text text-anchor="start" x="1392.35" y="-425.8" font-family="Helvetica,sans-Serif" font-size="14.00">gini = 0.372</text>
<text text-anchor="start" x="1383.02" y="-409" font-family="Helvetica,sans-Serif" font-size="14.00">samples = 308</text>
<text text-anchor="start" x="1376.78" y="-392.2" font-family="Helvetica,sans-Serif" font-size="14.00">value = [76, 232]</text>
<text text-anchor="start" x="1400.92" y="-375.4" font-family="Helvetica,sans-Serif" font-size="14.00">class = 1</text>
</g>
<!-- 1&#45;&gt;17 -->
<g id="edge17" class="edge">
<title>1-&gt;17</title>
<path fill="none" stroke="black" d="M1428.74,-494.71C1428.74,-487.04 1428.74,-478.99 1428.74,-471.07"/>
<polygon fill="black" stroke="black" points="1432.24,-471.14 1428.74,-461.14 1425.24,-471.14 1432.24,-471.14"/>
</g>
<!-- 3 -->
<g id="node4" class="node">
<title>3</title>
<path fill="#f0b88f" stroke="black" d="M487.9,-331.2C487.9,-331.2 321.58,-331.2 321.58,-331.2 315.58,-331.2 309.58,-325.2 309.58,-319.2 309.58,-319.2 309.58,-251.2 309.58,-251.2 309.58,-245.2 315.58,-239.2 321.58,-239.2 321.58,-239.2 487.9,-239.2 487.9,-239.2 493.9,-239.2 499.9,-245.2 499.9,-251.2 499.9,-251.2 499.9,-319.2 499.9,-319.2 499.9,-325.2 493.9,-331.2 487.9,-331.2"/>
<text text-anchor="start" x="317.58" y="-314.6" font-family="Helvetica,sans-Serif" font-size="14.00">LastPurchaseDate ≤ -0.833</text>
<text text-anchor="start" x="368.35" y="-297.8" font-family="Helvetica,sans-Serif" font-size="14.00">gini = 0.422</text>
<text text-anchor="start" x="359.02" y="-281" font-family="Helvetica,sans-Serif" font-size="14.00">samples = 419</text>
<text text-anchor="start" x="337.21" y="-264.2" font-family="Helvetica,sans-Serif" font-size="14.00">value = [292.0, 127.0]</text>
<text text-anchor="start" x="376.92" y="-247.4" font-family="Helvetica,sans-Serif" font-size="14.00">class = 0</text>
</g>
<!-- 2&#45;&gt;3 -->
<g id="edge3" class="edge">
<title>2-&gt;3</title>
<path fill="none" stroke="black" d="M701.32,-382.02C644.05,-363.51 570.54,-339.77 511.04,-320.54"/>
<polygon fill="black" stroke="black" points="512.13,-317.22 501.54,-317.47 509.98,-323.88 512.13,-317.22"/>
</g>
<!-- 10 -->
<g id="node11" class="node">
<title>10</title>
<path fill="#a4d2f3" stroke="black" d="M903.95,-331.2C903.95,-331.2 685.53,-331.2 685.53,-331.2 679.53,-331.2 673.53,-325.2 673.53,-319.2 673.53,-319.2 673.53,-251.2 673.53,-251.2 673.53,-245.2 679.53,-239.2 685.53,-239.2 685.53,-239.2 903.95,-239.2 903.95,-239.2 909.95,-239.2 915.95,-245.2 915.95,-251.2 915.95,-251.2 915.95,-319.2 915.95,-319.2 915.95,-325.2 909.95,-331.2 903.95,-331.2"/>
<text text-anchor="start" x="681.53" y="-314.6" font-family="Helvetica,sans-Serif" font-size="14.00">NumberOfDeviceRegistered ≤ -1.16</text>
<text text-anchor="start" x="758.35" y="-297.8" font-family="Helvetica,sans-Serif" font-size="14.00">gini = 0.456</text>
<text text-anchor="start" x="749.02" y="-281" font-family="Helvetica,sans-Serif" font-size="14.00">samples = 131</text>
<text text-anchor="start" x="746.68" y="-264.2" font-family="Helvetica,sans-Serif" font-size="14.00">value = [46, 85]</text>
<text text-anchor="start" x="766.92" y="-247.4" font-family="Helvetica,sans-Serif" font-size="14.00">class = 1</text>
</g>
<!-- 2&#45;&gt;10 -->
<g id="edge10" class="edge">
<title>2-&gt;10</title>
<path fill="none" stroke="black" d="M794.74,-366.71C794.74,-359.04 794.74,-350.99 794.74,-343.07"/>
<polygon fill="black" stroke="black" points="798.24,-343.14 794.74,-333.14 791.24,-343.14 798.24,-343.14"/>
</g>
<!-- 4 -->
<g id="node5" class="node">
<title>4</title>
<path fill="#e9f4fc" stroke="black" d="M281.62,-203.2C281.62,-203.2 109.86,-203.2 109.86,-203.2 103.86,-203.2 97.86,-197.2 97.86,-191.2 97.86,-191.2 97.86,-123.2 97.86,-123.2 97.86,-117.2 103.86,-111.2 109.86,-111.2 109.86,-111.2 281.62,-111.2 281.62,-111.2 287.62,-111.2 293.62,-117.2 293.62,-123.2 293.62,-123.2 293.62,-191.2 293.62,-191.2 293.62,-197.2 287.62,-203.2 281.62,-203.2"/>
<text text-anchor="start" x="105.86" y="-186.6" font-family="Helvetica,sans-Serif" font-size="14.00">WarehouseToHome ≤ 0.852</text>
<text text-anchor="start" x="159.35" y="-169.8" font-family="Helvetica,sans-Serif" font-size="14.00">gini = 0.498</text>
<text text-anchor="start" x="150.02" y="-153" font-family="Helvetica,sans-Serif" font-size="14.00">samples = 119</text>
<text text-anchor="start" x="147.68" y="-136.2" font-family="Helvetica,sans-Serif" font-size="14.00">value = [56, 63]</text>
<text text-anchor="start" x="167.92" y="-119.4" font-family="Helvetica,sans-Serif" font-size="14.00">class = 1</text>
</g>
<!-- 3&#45;&gt;4 -->
<g id="edge4" class="edge">
<title>3-&gt;4</title>
<path fill="none" stroke="black" d="M329.29,-238.71C313.45,-229.17 296.65,-219.04 280.5,-209.3"/>
<polygon fill="black" stroke="black" points="282.75,-206.57 272.38,-204.4 279.14,-212.56 282.75,-206.57"/>
</g>
<!-- 7 -->
<g id="node8" class="node">
<title>7</title>
<path fill="#eca36f" stroke="black" d="M485.57,-203.2C485.57,-203.2 323.91,-203.2 323.91,-203.2 317.91,-203.2 311.91,-197.2 311.91,-191.2 311.91,-191.2 311.91,-123.2 311.91,-123.2 311.91,-117.2 317.91,-111.2 323.91,-111.2 323.91,-111.2 485.57,-111.2 485.57,-111.2 491.57,-111.2 497.57,-117.2 497.57,-123.2 497.57,-123.2 497.57,-191.2 497.57,-191.2 497.57,-197.2 491.57,-203.2 485.57,-203.2"/>
<text text-anchor="start" x="319.91" y="-186.6" font-family="Helvetica,sans-Serif" font-size="14.00">LastPurchaseDate ≤ 1.134</text>
<text text-anchor="start" x="368.35" y="-169.8" font-family="Helvetica,sans-Serif" font-size="14.00">gini = 0.336</text>
<text text-anchor="start" x="359.02" y="-153" font-family="Helvetica,sans-Serif" font-size="14.00">samples = 300</text>
<text text-anchor="start" x="352.78" y="-136.2" font-family="Helvetica,sans-Serif" font-size="14.00">value = [236, 64]</text>
<text text-anchor="start" x="376.92" y="-119.4" font-family="Helvetica,sans-Serif" font-size="14.00">class = 0</text>
</g>
<!-- 3&#45;&gt;7 -->
<g id="edge7" class="edge">
<title>3-&gt;7</title>
<path fill="none" stroke="black" d="M404.74,-238.71C404.74,-231.04 404.74,-222.99 404.74,-215.07"/>
<polygon fill="black" stroke="black" points="408.24,-215.14 404.74,-205.14 401.24,-215.14 408.24,-215.14"/>
</g>
<!-- 5 -->
<g id="node6" class="node">
<title>5</title>
<path fill="#fbebe0" stroke="black" d="M123.48,-75.2C123.48,-75.2 12,-75.2 12,-75.2 6,-75.2 0,-69.2 0,-63.2 0,-63.2 0,-12 0,-12 0,-6 6,0 12,0 12,0 123.48,0 123.48,0 129.48,0 135.48,-6 135.48,-12 135.48,-12 135.48,-63.2 135.48,-63.2 135.48,-69.2 129.48,-75.2 123.48,-75.2"/>
<text text-anchor="start" x="31.35" y="-58.6" font-family="Helvetica,sans-Serif" font-size="14.00">gini = 0.496</text>
<text text-anchor="start" x="25.91" y="-41.8" font-family="Helvetica,sans-Serif" font-size="14.00">samples = 94</text>
<text text-anchor="start" x="8" y="-25" font-family="Helvetica,sans-Serif" font-size="14.00">value = [51.0, 43.0]</text>
<text text-anchor="start" x="39.92" y="-8.2" font-family="Helvetica,sans-Serif" font-size="14.00">class = 0</text>
</g>
<!-- 4&#45;&gt;5 -->
<g id="edge5" class="edge">
<title>4-&gt;5</title>
<path fill="none" stroke="black" d="M146.25,-110.73C136.46,-101.73 126.18,-92.3 116.42,-83.32"/>
<polygon fill="black" stroke="black" points="118.84,-80.79 109.1,-76.6 114.1,-85.95 118.84,-80.79"/>
</g>
<!-- 6 -->
<g id="node7" class="node">
<title>6</title>
<path fill="#6ab6ec" stroke="black" d="M245.91,-75.2C245.91,-75.2 165.57,-75.2 165.57,-75.2 159.57,-75.2 153.57,-69.2 153.57,-63.2 153.57,-63.2 153.57,-12 153.57,-12 153.57,-6 159.57,0 165.57,0 165.57,0 245.91,0 245.91,0 251.91,0 257.91,-6 257.91,-12 257.91,-12 257.91,-63.2 257.91,-63.2 257.91,-69.2 251.91,-75.2 245.91,-75.2"/>
<text text-anchor="start" x="173.24" y="-58.6" font-family="Helvetica,sans-Serif" font-size="14.00">gini = 0.32</text>
<text text-anchor="start" x="163.91" y="-41.8" font-family="Helvetica,sans-Serif" font-size="14.00">samples = 25</text>
<text text-anchor="start" x="161.57" y="-25" font-family="Helvetica,sans-Serif" font-size="14.00">value = [5, 20]</text>
<text text-anchor="start" x="177.92" y="-8.2" font-family="Helvetica,sans-Serif" font-size="14.00">class = 1</text>
</g>
<!-- 4&#45;&gt;6 -->
<g id="edge6" class="edge">
<title>4-&gt;6</title>
<path fill="none" stroke="black" d="M199.61,-110.73C200.27,-102.92 200.96,-94.77 201.63,-86.88"/>
<polygon fill="black" stroke="black" points="205.11,-87.35 202.47,-77.09 198.13,-86.76 205.11,-87.35"/>
</g>
<!-- 8 -->
<g id="node9" class="node">
<title>8</title>
<path fill="#eb9e66" stroke="black" d="M421.7,-75.2C421.7,-75.2 325.78,-75.2 325.78,-75.2 319.78,-75.2 313.78,-69.2 313.78,-63.2 313.78,-63.2 313.78,-12 313.78,-12 313.78,-6 319.78,0 325.78,0 325.78,0 421.7,0 421.7,0 427.7,0 433.7,-6 433.7,-12 433.7,-12 433.7,-63.2 433.7,-63.2 433.7,-69.2 427.7,-75.2 421.7,-75.2"/>
<text text-anchor="start" x="337.35" y="-58.6" font-family="Helvetica,sans-Serif" font-size="14.00">gini = 0.304</text>
<text text-anchor="start" x="328.02" y="-41.8" font-family="Helvetica,sans-Serif" font-size="14.00">samples = 289</text>
<text text-anchor="start" x="321.78" y="-25" font-family="Helvetica,sans-Serif" font-size="14.00">value = [235, 54]</text>
<text text-anchor="start" x="345.92" y="-8.2" font-family="Helvetica,sans-Serif" font-size="14.00">class = 0</text>
</g>
<!-- 7&#45;&gt;8 -->
<g id="edge8" class="edge">
<title>7-&gt;8</title>
<path fill="none" stroke="black" d="M392.75,-110.73C390.67,-102.83 388.5,-94.58 386.39,-86.61"/>
<polygon fill="black" stroke="black" points="389.81,-85.82 383.87,-77.04 383.04,-87.61 389.81,-85.82"/>
</g>
<!-- 9 -->
<g id="node10" class="node">
<title>9</title>
<path fill="#4da7e8" stroke="black" d="M543.91,-75.2C543.91,-75.2 463.57,-75.2 463.57,-75.2 457.57,-75.2 451.57,-69.2 451.57,-63.2 451.57,-63.2 451.57,-12 451.57,-12 451.57,-6 457.57,0 463.57,0 463.57,0 543.91,0 543.91,0 549.91,0 555.91,-6 555.91,-12 555.91,-12 555.91,-63.2 555.91,-63.2 555.91,-69.2 549.91,-75.2 543.91,-75.2"/>
<text text-anchor="start" x="467.35" y="-58.6" font-family="Helvetica,sans-Serif" font-size="14.00">gini = 0.165</text>
<text text-anchor="start" x="461.91" y="-41.8" font-family="Helvetica,sans-Serif" font-size="14.00">samples = 11</text>
<text text-anchor="start" x="459.57" y="-25" font-family="Helvetica,sans-Serif" font-size="14.00">value = [1, 10]</text>
<text text-anchor="start" x="475.92" y="-8.2" font-family="Helvetica,sans-Serif" font-size="14.00">class = 1</text>
</g>
<!-- 7&#45;&gt;9 -->
<g id="edge9" class="edge">
<title>7-&gt;9</title>
<path fill="none" stroke="black" d="M443.02,-110.73C450.36,-102.01 458.05,-92.87 465.4,-84.14"/>
<polygon fill="black" stroke="black" points="467.87,-86.64 471.63,-76.74 462.52,-82.13 467.87,-86.64"/>
</g>
<!-- 11 -->
<g id="node12" class="node">
<title>11</title>
<path fill="#ea985d" stroke="black" d="M774.34,-203.2C774.34,-203.2 527.14,-203.2 527.14,-203.2 521.14,-203.2 515.14,-197.2 515.14,-191.2 515.14,-191.2 515.14,-123.2 515.14,-123.2 515.14,-117.2 521.14,-111.2 527.14,-111.2 527.14,-111.2 774.34,-111.2 774.34,-111.2 780.34,-111.2 786.34,-117.2 786.34,-123.2 786.34,-123.2 786.34,-191.2 786.34,-191.2 786.34,-197.2 780.34,-203.2 774.34,-203.2"/>
<text text-anchor="start" x="523.14" y="-186.6" font-family="Helvetica,sans-Serif" font-size="14.00">OrderAmountHikeFromlastYear ≤ -0.585</text>
<text text-anchor="start" x="618.24" y="-169.8" font-family="Helvetica,sans-Serif" font-size="14.00">gini = 0.26</text>
<text text-anchor="start" x="608.91" y="-153" font-family="Helvetica,sans-Serif" font-size="14.00">samples = 13</text>
<text text-anchor="start" x="606.57" y="-136.2" font-family="Helvetica,sans-Serif" font-size="14.00">value = [11, 2]</text>
<text text-anchor="start" x="622.92" y="-119.4" font-family="Helvetica,sans-Serif" font-size="14.00">class = 0</text>
</g>
<!-- 10&#45;&gt;11 -->
<g id="edge11" class="edge">
<title>10-&gt;11</title>
<path fill="none" stroke="black" d="M742.75,-238.71C732.45,-229.7 721.56,-220.17 711.02,-210.94"/>
<polygon fill="black" stroke="black" points="713.62,-208.57 703.79,-204.62 709.01,-213.84 713.62,-208.57"/>
</g>
<!-- 14 -->
<g id="node15" class="node">
<title>14</title>
<path fill="#8cc6f0" stroke="black" d="M1059.01,-203.2C1059.01,-203.2 816.47,-203.2 816.47,-203.2 810.47,-203.2 804.47,-197.2 804.47,-191.2 804.47,-191.2 804.47,-123.2 804.47,-123.2 804.47,-117.2 810.47,-111.2 816.47,-111.2 816.47,-111.2 1059.01,-111.2 1059.01,-111.2 1065.01,-111.2 1071.01,-117.2 1071.01,-123.2 1071.01,-123.2 1071.01,-191.2 1071.01,-191.2 1071.01,-197.2 1065.01,-203.2 1059.01,-203.2"/>
<text text-anchor="start" x="812.47" y="-186.6" font-family="Helvetica,sans-Serif" font-size="14.00">OrderAmountHikeFromlastYear ≤ 0.768</text>
<text text-anchor="start" x="901.35" y="-169.8" font-family="Helvetica,sans-Serif" font-size="14.00">gini = 0.417</text>
<text text-anchor="start" x="892.02" y="-153" font-family="Helvetica,sans-Serif" font-size="14.00">samples = 118</text>
<text text-anchor="start" x="889.68" y="-136.2" font-family="Helvetica,sans-Serif" font-size="14.00">value = [35, 83]</text>
<text text-anchor="start" x="909.92" y="-119.4" font-family="Helvetica,sans-Serif" font-size="14.00">class = 1</text>
</g>
<!-- 10&#45;&gt;14 -->
<g id="edge14" class="edge">
<title>10-&gt;14</title>
<path fill="none" stroke="black" d="M846.37,-238.71C856.49,-229.79 867.19,-220.36 877.57,-211.22"/>
<polygon fill="black" stroke="black" points="879.86,-213.86 885.05,-204.62 875.24,-208.61 879.86,-213.86"/>
</g>
<!-- 12 -->
<g id="node13" class="node">
<title>12</title>
<path fill="#399de5" stroke="black" d="M677.02,-75.2C677.02,-75.2 604.46,-75.2 604.46,-75.2 598.46,-75.2 592.46,-69.2 592.46,-63.2 592.46,-63.2 592.46,-12 592.46,-12 592.46,-6 598.46,0 604.46,0 604.46,0 677.02,0 677.02,0 683.02,0 689.02,-6 689.02,-12 689.02,-12 689.02,-63.2 689.02,-63.2 689.02,-69.2 683.02,-75.2 677.02,-75.2"/>
<text text-anchor="start" x="612.13" y="-58.6" font-family="Helvetica,sans-Serif" font-size="14.00">gini = 0.0</text>
<text text-anchor="start" x="602.8" y="-41.8" font-family="Helvetica,sans-Serif" font-size="14.00">samples = 2</text>
<text text-anchor="start" x="600.46" y="-25" font-family="Helvetica,sans-Serif" font-size="14.00">value = [0, 2]</text>
<text text-anchor="start" x="612.92" y="-8.2" font-family="Helvetica,sans-Serif" font-size="14.00">class = 1</text>
</g>
<!-- 11&#45;&gt;12 -->
<g id="edge12" class="edge">
<title>11-&gt;12</title>
<path fill="none" stroke="black" d="M646.87,-110.73C646.21,-102.92 645.52,-94.77 644.84,-86.88"/>
<polygon fill="black" stroke="black" points="648.35,-86.76 644.01,-77.09 641.37,-87.35 648.35,-86.76"/>
</g>
<!-- 13 -->
<g id="node14" class="node">
<title>13</title>
<path fill="#e58139" stroke="black" d="M798.91,-75.2C798.91,-75.2 718.57,-75.2 718.57,-75.2 712.57,-75.2 706.57,-69.2 706.57,-63.2 706.57,-63.2 706.57,-12 706.57,-12 706.57,-6 712.57,0 718.57,0 718.57,0 798.91,0 798.91,0 804.91,0 810.91,-6 810.91,-12 810.91,-12 810.91,-63.2 810.91,-63.2 810.91,-69.2 804.91,-75.2 798.91,-75.2"/>
<text text-anchor="start" x="730.13" y="-58.6" font-family="Helvetica,sans-Serif" font-size="14.00">gini = 0.0</text>
<text text-anchor="start" x="716.91" y="-41.8" font-family="Helvetica,sans-Serif" font-size="14.00">samples = 11</text>
<text text-anchor="start" x="714.57" y="-25" font-family="Helvetica,sans-Serif" font-size="14.00">value = [11, 0]</text>
<text text-anchor="start" x="730.92" y="-8.2" font-family="Helvetica,sans-Serif" font-size="14.00">class = 0</text>
</g>
<!-- 11&#45;&gt;13 -->
<g id="edge13" class="edge">
<title>11-&gt;13</title>
<path fill="none" stroke="black" d="M692.49,-110.73C700.59,-101.92 709.08,-92.68 717.17,-83.87"/>
<polygon fill="black" stroke="black" points="719.57,-86.43 723.75,-76.69 714.41,-81.69 719.57,-86.43"/>
</g>
<!-- 15 -->
<g id="node16" class="node">
<title>15</title>
<path fill="#72b9ec" stroke="black" d="M967.8,-75.2C967.8,-75.2 879.68,-75.2 879.68,-75.2 873.68,-75.2 867.68,-69.2 867.68,-63.2 867.68,-63.2 867.68,-12 867.68,-12 867.68,-6 873.68,0 879.68,0 879.68,0 967.8,0 967.8,0 973.8,0 979.8,-6 979.8,-12 979.8,-12 979.8,-63.2 979.8,-63.2 979.8,-69.2 973.8,-75.2 967.8,-75.2"/>
<text text-anchor="start" x="887.35" y="-58.6" font-family="Helvetica,sans-Serif" font-size="14.00">gini = 0.347</text>
<text text-anchor="start" x="881.91" y="-41.8" font-family="Helvetica,sans-Serif" font-size="14.00">samples = 94</text>
<text text-anchor="start" x="875.68" y="-25" font-family="Helvetica,sans-Serif" font-size="14.00">value = [21, 73]</text>
<text text-anchor="start" x="895.92" y="-8.2" font-family="Helvetica,sans-Serif" font-size="14.00">class = 1</text>
</g>
<!-- 14&#45;&gt;15 -->
<g id="edge15" class="edge">
<title>14-&gt;15</title>
<path fill="none" stroke="black" d="M932.33,-110.73C931.4,-102.92 930.43,-94.77 929.49,-86.88"/>
<polygon fill="black" stroke="black" points="932.98,-86.6 928.32,-77.08 926.03,-87.43 932.98,-86.6"/>
</g>
<!-- 16 -->
<g id="node17" class="node">
<title>16</title>
<path fill="#f8dbc6" stroke="black" d="M1097.8,-75.2C1097.8,-75.2 1009.68,-75.2 1009.68,-75.2 1003.68,-75.2 997.68,-69.2 997.68,-63.2 997.68,-63.2 997.68,-12 997.68,-12 997.68,-6 1003.68,0 1009.68,0 1009.68,0 1097.8,0 1097.8,0 1103.8,0 1109.8,-6 1109.8,-12 1109.8,-12 1109.8,-63.2 1109.8,-63.2 1109.8,-69.2 1103.8,-75.2 1097.8,-75.2"/>
<text text-anchor="start" x="1017.35" y="-58.6" font-family="Helvetica,sans-Serif" font-size="14.00">gini = 0.486</text>
<text text-anchor="start" x="1011.91" y="-41.8" font-family="Helvetica,sans-Serif" font-size="14.00">samples = 24</text>
<text text-anchor="start" x="1005.68" y="-25" font-family="Helvetica,sans-Serif" font-size="14.00">value = [14, 10]</text>
<text text-anchor="start" x="1025.92" y="-8.2" font-family="Helvetica,sans-Serif" font-size="14.00">class = 0</text>
</g>
<!-- 14&#45;&gt;16 -->
<g id="edge16" class="edge">
<title>14-&gt;16</title>
<path fill="none" stroke="black" d="M982.59,-110.73C991.37,-101.83 1000.59,-92.49 1009.36,-83.6"/>
<polygon fill="black" stroke="black" points="1011.67,-86.23 1016.2,-76.66 1006.69,-81.32 1011.67,-86.23"/>
</g>
<!-- 18 -->
<g id="node19" class="node">
<title>18</title>
<path fill="#99ccf2" stroke="black" d="M1414.95,-331.2C1414.95,-331.2 1196.53,-331.2 1196.53,-331.2 1190.53,-331.2 1184.53,-325.2 1184.53,-319.2 1184.53,-319.2 1184.53,-251.2 1184.53,-251.2 1184.53,-245.2 1190.53,-239.2 1196.53,-239.2 1196.53,-239.2 1414.95,-239.2 1414.95,-239.2 1420.95,-239.2 1426.95,-245.2 1426.95,-251.2 1426.95,-251.2 1426.95,-319.2 1426.95,-319.2 1426.95,-325.2 1420.95,-331.2 1414.95,-331.2"/>
<text text-anchor="start" x="1192.53" y="-314.6" font-family="Helvetica,sans-Serif" font-size="14.00">NumberOfDeviceRegistered ≤ -1.16</text>
<text text-anchor="start" x="1269.35" y="-297.8" font-family="Helvetica,sans-Serif" font-size="14.00">gini = 0.439</text>
<text text-anchor="start" x="1260.02" y="-281" font-family="Helvetica,sans-Serif" font-size="14.00">samples = 224</text>
<text text-anchor="start" x="1253.78" y="-264.2" font-family="Helvetica,sans-Serif" font-size="14.00">value = [73, 151]</text>
<text text-anchor="start" x="1277.92" y="-247.4" font-family="Helvetica,sans-Serif" font-size="14.00">class = 1</text>
</g>
<!-- 17&#45;&gt;18 -->
<g id="edge18" class="edge">
<title>17-&gt;18</title>
<path fill="none" stroke="black" d="M1384.33,-366.71C1375.8,-357.97 1366.79,-348.74 1358.03,-339.77"/>
<polygon fill="black" stroke="black" points="1360.63,-337.42 1351.14,-332.71 1355.62,-342.31 1360.63,-337.42"/>
</g>
<!-- 23 -->
<g id="node24" class="node">
<title>23</title>
<path fill="#40a1e6" stroke="black" d="M1618.17,-331.2C1618.17,-331.2 1485.31,-331.2 1485.31,-331.2 1479.31,-331.2 1473.31,-325.2 1473.31,-319.2 1473.31,-319.2 1473.31,-251.2 1473.31,-251.2 1473.31,-245.2 1479.31,-239.2 1485.31,-239.2 1485.31,-239.2 1618.17,-239.2 1618.17,-239.2 1624.17,-239.2 1630.17,-245.2 1630.17,-251.2 1630.17,-251.2 1630.17,-319.2 1630.17,-319.2 1630.17,-325.2 1624.17,-331.2 1618.17,-331.2"/>
<text text-anchor="start" x="1481.31" y="-314.6" font-family="Helvetica,sans-Serif" font-size="14.00">CouponUsed ≤ -0.678</text>
<text text-anchor="start" x="1515.35" y="-297.8" font-family="Helvetica,sans-Serif" font-size="14.00">gini = 0.069</text>
<text text-anchor="start" x="1509.91" y="-281" font-family="Helvetica,sans-Serif" font-size="14.00">samples = 84</text>
<text text-anchor="start" x="1507.57" y="-264.2" font-family="Helvetica,sans-Serif" font-size="14.00">value = [3, 81]</text>
<text text-anchor="start" x="1523.92" y="-247.4" font-family="Helvetica,sans-Serif" font-size="14.00">class = 1</text>
</g>
<!-- 17&#45;&gt;23 -->
<g id="edge23" class="edge">
<title>17-&gt;23</title>
<path fill="none" stroke="black" d="M1473.15,-366.71C1481.68,-357.97 1490.69,-348.74 1499.45,-339.77"/>
<polygon fill="black" stroke="black" points="1501.86,-342.31 1506.34,-332.71 1496.85,-337.42 1501.86,-342.31"/>
</g>
<!-- 19 -->
<g id="node20" class="node">
<title>19</title>
<path fill="#e58139" stroke="black" d="M1180.91,-194.8C1180.91,-194.8 1100.57,-194.8 1100.57,-194.8 1094.57,-194.8 1088.57,-188.8 1088.57,-182.8 1088.57,-182.8 1088.57,-131.6 1088.57,-131.6 1088.57,-125.6 1094.57,-119.6 1100.57,-119.6 1100.57,-119.6 1180.91,-119.6 1180.91,-119.6 1186.91,-119.6 1192.91,-125.6 1192.91,-131.6 1192.91,-131.6 1192.91,-182.8 1192.91,-182.8 1192.91,-188.8 1186.91,-194.8 1180.91,-194.8"/>
<text text-anchor="start" x="1112.13" y="-178.2" font-family="Helvetica,sans-Serif" font-size="14.00">gini = 0.0</text>
<text text-anchor="start" x="1098.91" y="-161.4" font-family="Helvetica,sans-Serif" font-size="14.00">samples = 13</text>
<text text-anchor="start" x="1096.57" y="-144.6" font-family="Helvetica,sans-Serif" font-size="14.00">value = [13, 0]</text>
<text text-anchor="start" x="1112.92" y="-127.8" font-family="Helvetica,sans-Serif" font-size="14.00">class = 0</text>
</g>
<!-- 18&#45;&gt;19 -->
<g id="edge19" class="edge">
<title>18-&gt;19</title>
<path fill="none" stroke="black" d="M1246.17,-238.71C1230.51,-226.75 1213.64,-213.87 1198.1,-202"/>
<polygon fill="black" stroke="black" points="1200.39,-199.35 1190.32,-196.06 1196.14,-204.91 1200.39,-199.35"/>
</g>
<!-- 20 -->
<g id="node21" class="node">
<title>20</title>
<path fill="#88c4ef" stroke="black" d="M1388.9,-203.2C1388.9,-203.2 1222.58,-203.2 1222.58,-203.2 1216.58,-203.2 1210.58,-197.2 1210.58,-191.2 1210.58,-191.2 1210.58,-123.2 1210.58,-123.2 1210.58,-117.2 1216.58,-111.2 1222.58,-111.2 1222.58,-111.2 1388.9,-111.2 1388.9,-111.2 1394.9,-111.2 1400.9,-117.2 1400.9,-123.2 1400.9,-123.2 1400.9,-191.2 1400.9,-191.2 1400.9,-197.2 1394.9,-203.2 1388.9,-203.2"/>
<text text-anchor="start" x="1218.58" y="-186.6" font-family="Helvetica,sans-Serif" font-size="14.00">LastPurchaseDate ≤ -0.833</text>
<text text-anchor="start" x="1269.35" y="-169.8" font-family="Helvetica,sans-Serif" font-size="14.00">gini = 0.407</text>
<text text-anchor="start" x="1260.02" y="-153" font-family="Helvetica,sans-Serif" font-size="14.00">samples = 211</text>
<text text-anchor="start" x="1253.78" y="-136.2" font-family="Helvetica,sans-Serif" font-size="14.00">value = [60, 151]</text>
<text text-anchor="start" x="1277.92" y="-119.4" font-family="Helvetica,sans-Serif" font-size="14.00">class = 1</text>
</g>
<!-- 18&#45;&gt;20 -->
<g id="edge20" class="edge">
<title>18-&gt;20</title>
<path fill="none" stroke="black" d="M1305.74,-238.71C1305.74,-231.04 1305.74,-222.99 1305.74,-215.07"/>
<polygon fill="black" stroke="black" points="1309.24,-215.14 1305.74,-205.14 1302.24,-215.14 1309.24,-215.14"/>
</g>
<!-- 21 -->
<g id="node22" class="node">
<title>21</title>
<path fill="#4aa6e7" stroke="black" d="M1238.91,-75.2C1238.91,-75.2 1158.57,-75.2 1158.57,-75.2 1152.57,-75.2 1146.57,-69.2 1146.57,-63.2 1146.57,-63.2 1146.57,-12 1146.57,-12 1146.57,-6 1152.57,0 1158.57,0 1158.57,0 1238.91,0 1238.91,0 1244.91,0 1250.91,-6 1250.91,-12 1250.91,-12 1250.91,-63.2 1250.91,-63.2 1250.91,-69.2 1244.91,-75.2 1238.91,-75.2"/>
<text text-anchor="start" x="1162.35" y="-58.6" font-family="Helvetica,sans-Serif" font-size="14.00">gini = 0.148</text>
<text text-anchor="start" x="1156.91" y="-41.8" font-family="Helvetica,sans-Serif" font-size="14.00">samples = 62</text>
<text text-anchor="start" x="1154.57" y="-25" font-family="Helvetica,sans-Serif" font-size="14.00">value = [5, 57]</text>
<text text-anchor="start" x="1170.92" y="-8.2" font-family="Helvetica,sans-Serif" font-size="14.00">class = 1</text>
</g>
<!-- 20&#45;&gt;21 -->
<g id="edge21" class="edge">
<title>20-&gt;21</title>
<path fill="none" stroke="black" d="M1264.37,-110.73C1256.35,-101.92 1247.94,-92.68 1239.93,-83.87"/>
<polygon fill="black" stroke="black" points="1242.72,-81.74 1233.4,-76.7 1237.55,-86.45 1242.72,-81.74"/>
</g>
<!-- 22 -->
<g id="node23" class="node">
<title>22</title>
<path fill="#add6f4" stroke="black" d="M1368.8,-75.2C1368.8,-75.2 1280.68,-75.2 1280.68,-75.2 1274.68,-75.2 1268.68,-69.2 1268.68,-63.2 1268.68,-63.2 1268.68,-12 1268.68,-12 1268.68,-6 1274.68,0 1280.68,0 1280.68,0 1368.8,0 1368.8,0 1374.8,0 1380.8,-6 1380.8,-12 1380.8,-12 1380.8,-63.2 1380.8,-63.2 1380.8,-69.2 1374.8,-75.2 1368.8,-75.2"/>
<text text-anchor="start" x="1288.35" y="-58.6" font-family="Helvetica,sans-Serif" font-size="14.00">gini = 0.466</text>
<text text-anchor="start" x="1279.02" y="-41.8" font-family="Helvetica,sans-Serif" font-size="14.00">samples = 149</text>
<text text-anchor="start" x="1276.68" y="-25" font-family="Helvetica,sans-Serif" font-size="14.00">value = [55, 94]</text>
<text text-anchor="start" x="1296.92" y="-8.2" font-family="Helvetica,sans-Serif" font-size="14.00">class = 1</text>
</g>
<!-- 20&#45;&gt;22 -->
<g id="edge22" class="edge">
<title>20-&gt;22</title>
<path fill="none" stroke="black" d="M1313.09,-110.73C1314.35,-102.92 1315.66,-94.77 1316.94,-86.88"/>
<polygon fill="black" stroke="black" points="1320.38,-87.5 1318.52,-77.07 1313.47,-86.39 1320.38,-87.5"/>
</g>
<!-- 24 -->
<g id="node25" class="node">
<title>24</title>
<path fill="#7bbeee" stroke="black" d="M1673.01,-203.2C1673.01,-203.2 1430.47,-203.2 1430.47,-203.2 1424.47,-203.2 1418.47,-197.2 1418.47,-191.2 1418.47,-191.2 1418.47,-123.2 1418.47,-123.2 1418.47,-117.2 1424.47,-111.2 1430.47,-111.2 1430.47,-111.2 1673.01,-111.2 1673.01,-111.2 1679.01,-111.2 1685.01,-117.2 1685.01,-123.2 1685.01,-123.2 1685.01,-191.2 1685.01,-191.2 1685.01,-197.2 1679.01,-203.2 1673.01,-203.2"/>
<text text-anchor="start" x="1426.47" y="-186.6" font-family="Helvetica,sans-Serif" font-size="14.00">OrderAmountHikeFromlastYear ≤ 0.768</text>
<text text-anchor="start" x="1515.35" y="-169.8" font-family="Helvetica,sans-Serif" font-size="14.00">gini = 0.375</text>
<text text-anchor="start" x="1509.91" y="-153" font-family="Helvetica,sans-Serif" font-size="14.00">samples = 12</text>
<text text-anchor="start" x="1511.46" y="-136.2" font-family="Helvetica,sans-Serif" font-size="14.00">value = [3, 9]</text>
<text text-anchor="start" x="1523.92" y="-119.4" font-family="Helvetica,sans-Serif" font-size="14.00">class = 1</text>
</g>
<!-- 23&#45;&gt;24 -->
<g id="edge24" class="edge">
<title>23-&gt;24</title>
<path fill="none" stroke="black" d="M1551.74,-238.71C1551.74,-231.04 1551.74,-222.99 1551.74,-215.07"/>
<polygon fill="black" stroke="black" points="1555.24,-215.14 1551.74,-205.14 1548.24,-215.14 1555.24,-215.14"/>
</g>
<!-- 27 -->
<g id="node28" class="node">
<title>27</title>
<path fill="#399de5" stroke="black" d="M1794.91,-194.8C1794.91,-194.8 1714.57,-194.8 1714.57,-194.8 1708.57,-194.8 1702.57,-188.8 1702.57,-182.8 1702.57,-182.8 1702.57,-131.6 1702.57,-131.6 1702.57,-125.6 1708.57,-119.6 1714.57,-119.6 1714.57,-119.6 1794.91,-119.6 1794.91,-119.6 1800.91,-119.6 1806.91,-125.6 1806.91,-131.6 1806.91,-131.6 1806.91,-182.8 1806.91,-182.8 1806.91,-188.8 1800.91,-194.8 1794.91,-194.8"/>
<text text-anchor="start" x="1726.13" y="-178.2" font-family="Helvetica,sans-Serif" font-size="14.00">gini = 0.0</text>
<text text-anchor="start" x="1712.91" y="-161.4" font-family="Helvetica,sans-Serif" font-size="14.00">samples = 72</text>
<text text-anchor="start" x="1710.57" y="-144.6" font-family="Helvetica,sans-Serif" font-size="14.00">value = [0, 72]</text>
<text text-anchor="start" x="1726.92" y="-127.8" font-family="Helvetica,sans-Serif" font-size="14.00">class = 1</text>
</g>
<!-- 23&#45;&gt;27 -->
<g id="edge27" class="edge">
<title>23-&gt;27</title>
<path fill="none" stroke="black" d="M1630.48,-241.46C1651.34,-229.55 1673.64,-216.28 1693.74,-203.2 1694.58,-202.65 1695.43,-202.09 1696.28,-201.53"/>
<polygon fill="black" stroke="black" points="1697.92,-204.65 1704.23,-196.14 1693.99,-198.86 1697.92,-204.65"/>
</g>
<!-- 25 -->
<g id="node26" class="node">
<title>25</title>
<path fill="#399de5" stroke="black" d="M1487.02,-75.2C1487.02,-75.2 1414.46,-75.2 1414.46,-75.2 1408.46,-75.2 1402.46,-69.2 1402.46,-63.2 1402.46,-63.2 1402.46,-12 1402.46,-12 1402.46,-6 1408.46,0 1414.46,0 1414.46,0 1487.02,0 1487.02,0 1493.02,0 1499.02,-6 1499.02,-12 1499.02,-12 1499.02,-63.2 1499.02,-63.2 1499.02,-69.2 1493.02,-75.2 1487.02,-75.2"/>
<text text-anchor="start" x="1422.13" y="-58.6" font-family="Helvetica,sans-Serif" font-size="14.00">gini = 0.0</text>
<text text-anchor="start" x="1412.8" y="-41.8" font-family="Helvetica,sans-Serif" font-size="14.00">samples = 8</text>
<text text-anchor="start" x="1410.46" y="-25" font-family="Helvetica,sans-Serif" font-size="14.00">value = [0, 8]</text>
<text text-anchor="start" x="1422.92" y="-8.2" font-family="Helvetica,sans-Serif" font-size="14.00">class = 1</text>
</g>
<!-- 24&#45;&gt;25 -->
<g id="edge25" class="edge">
<title>24-&gt;25</title>
<path fill="none" stroke="black" d="M1512.69,-110.73C1505.2,-102.01 1497.35,-92.87 1489.85,-84.14"/>
<polygon fill="black" stroke="black" points="1492.66,-82.03 1483.49,-76.73 1487.35,-86.59 1492.66,-82.03"/>
</g>
<!-- 26 -->
<g id="node27" class="node">
<title>26</title>
<path fill="#eeab7b" stroke="black" d="M1602.02,-75.2C1602.02,-75.2 1529.46,-75.2 1529.46,-75.2 1523.46,-75.2 1517.46,-69.2 1517.46,-63.2 1517.46,-63.2 1517.46,-12 1517.46,-12 1517.46,-6 1523.46,0 1529.46,0 1529.46,0 1602.02,0 1602.02,0 1608.02,0 1614.02,-6 1614.02,-12 1614.02,-12 1614.02,-63.2 1614.02,-63.2 1614.02,-69.2 1608.02,-75.2 1602.02,-75.2"/>
<text text-anchor="start" x="1529.35" y="-58.6" font-family="Helvetica,sans-Serif" font-size="14.00">gini = 0.375</text>
<text text-anchor="start" x="1527.8" y="-41.8" font-family="Helvetica,sans-Serif" font-size="14.00">samples = 4</text>
<text text-anchor="start" x="1525.46" y="-25" font-family="Helvetica,sans-Serif" font-size="14.00">value = [3, 1]</text>
<text text-anchor="start" x="1537.92" y="-8.2" font-family="Helvetica,sans-Serif" font-size="14.00">class = 0</text>
</g>
<!-- 24&#45;&gt;26 -->
<g id="edge26" class="edge">
<title>24-&gt;26</title>
<path fill="none" stroke="black" d="M1557.15,-110.73C1558.08,-102.92 1559.05,-94.77 1559.99,-86.88"/>
<polygon fill="black" stroke="black" points="1563.45,-87.43 1561.16,-77.08 1556.5,-86.6 1563.45,-87.43"/>
</g>
<!-- 29 -->
<g id="node30" class="node">
<title>29</title>
<path fill="#eeaf81" stroke="black" d="M2277.55,-459.2C2277.55,-459.2 2171.93,-459.2 2171.93,-459.2 2165.93,-459.2 2159.93,-453.2 2159.93,-447.2 2159.93,-447.2 2159.93,-379.2 2159.93,-379.2 2159.93,-373.2 2165.93,-367.2 2171.93,-367.2 2171.93,-367.2 2277.55,-367.2 2277.55,-367.2 2283.55,-367.2 2289.55,-373.2 2289.55,-379.2 2289.55,-379.2 2289.55,-447.2 2289.55,-447.2 2289.55,-453.2 2283.55,-459.2 2277.55,-459.2"/>
<text text-anchor="start" x="2167.93" y="-442.6" font-family="Helvetica,sans-Serif" font-size="14.00">Complain ≤ 0.486</text>
<text text-anchor="start" x="2192.24" y="-425.8" font-family="Helvetica,sans-Serif" font-size="14.00">gini = 0.39</text>
<text text-anchor="start" x="2179.02" y="-409" font-family="Helvetica,sans-Serif" font-size="14.00">samples = 207</text>
<text text-anchor="start" x="2172.78" y="-392.2" font-family="Helvetica,sans-Serif" font-size="14.00">value = [152, 55]</text>
<text text-anchor="start" x="2196.92" y="-375.4" font-family="Helvetica,sans-Serif" font-size="14.00">class = 0</text>
</g>
<!-- 28&#45;&gt;29 -->
<g id="edge29" class="edge">
<title>28-&gt;29</title>
<path fill="none" stroke="black" d="M2224.74,-494.71C2224.74,-487.04 2224.74,-478.99 2224.74,-471.07"/>
<polygon fill="black" stroke="black" points="2228.24,-471.14 2224.74,-461.14 2221.24,-471.14 2228.24,-471.14"/>
</g>
<!-- 44 -->
<g id="node45" class="node">
<title>44</title>
<path fill="#e78945" stroke="black" d="M2977.48,-459.2C2977.48,-459.2 2866,-459.2 2866,-459.2 2860,-459.2 2854,-453.2 2854,-447.2 2854,-447.2 2854,-379.2 2854,-379.2 2854,-373.2 2860,-367.2 2866,-367.2 2866,-367.2 2977.48,-367.2 2977.48,-367.2 2983.48,-367.2 2989.48,-373.2 2989.48,-379.2 2989.48,-379.2 2989.48,-447.2 2989.48,-447.2 2989.48,-453.2 2983.48,-459.2 2977.48,-459.2"/>
<text text-anchor="start" x="2864.93" y="-442.6" font-family="Helvetica,sans-Serif" font-size="14.00">Complain ≤ 0.486</text>
<text text-anchor="start" x="2885.35" y="-425.8" font-family="Helvetica,sans-Serif" font-size="14.00">gini = 0.108</text>
<text text-anchor="start" x="2872.12" y="-409" font-family="Helvetica,sans-Serif" font-size="14.00">samples = 2876</text>
<text text-anchor="start" x="2862" y="-392.2" font-family="Helvetica,sans-Serif" font-size="14.00">value = [2711, 165]</text>
<text text-anchor="start" x="2893.92" y="-375.4" font-family="Helvetica,sans-Serif" font-size="14.00">class = 0</text>
</g>
<!-- 28&#45;&gt;44 -->
<g id="edge44" class="edge">
<title>28-&gt;44</title>
<path fill="none" stroke="black" d="M2296.38,-527.25C2427.65,-503.52 2705.79,-453.24 2842.51,-428.52"/>
<polygon fill="black" stroke="black" points="2842.99,-431.99 2852.2,-426.77 2841.74,-425.1 2842.99,-431.99"/>
</g>
<!-- 30 -->
<g id="node31" class="node">
<title>30</title>
<path fill="#ea9b62" stroke="black" d="M2184.9,-331.2C2184.9,-331.2 2018.58,-331.2 2018.58,-331.2 2012.58,-331.2 2006.58,-325.2 2006.58,-319.2 2006.58,-319.2 2006.58,-251.2 2006.58,-251.2 2006.58,-245.2 2012.58,-239.2 2018.58,-239.2 2018.58,-239.2 2184.9,-239.2 2184.9,-239.2 2190.9,-239.2 2196.9,-245.2 2196.9,-251.2 2196.9,-251.2 2196.9,-319.2 2196.9,-319.2 2196.9,-325.2 2190.9,-331.2 2184.9,-331.2"/>
<text text-anchor="start" x="2014.58" y="-314.6" font-family="Helvetica,sans-Serif" font-size="14.00">LastPurchaseDate ≤ -1.114</text>
<text text-anchor="start" x="2065.35" y="-297.8" font-family="Helvetica,sans-Serif" font-size="14.00">gini = 0.285</text>
<text text-anchor="start" x="2056.02" y="-281" font-family="Helvetica,sans-Serif" font-size="14.00">samples = 157</text>
<text text-anchor="start" x="2049.78" y="-264.2" font-family="Helvetica,sans-Serif" font-size="14.00">value = [130, 27]</text>
<text text-anchor="start" x="2073.92" y="-247.4" font-family="Helvetica,sans-Serif" font-size="14.00">class = 0</text>
</g>
<!-- 29&#45;&gt;30 -->
<g id="edge30" class="edge">
<title>29-&gt;30</title>
<path fill="none" stroke="black" d="M2180.33,-366.71C2171.8,-357.97 2162.79,-348.74 2154.03,-339.77"/>
<polygon fill="black" stroke="black" points="2156.63,-337.42 2147.14,-332.71 2151.62,-342.31 2156.63,-337.42"/>
</g>
<!-- 37 -->
<g id="node38" class="node">
<title>37</title>
<path fill="#d5eaf9" stroke="black" d="M2452.12,-331.2C2452.12,-331.2 2245.35,-331.2 2245.35,-331.2 2239.35,-331.2 2233.35,-325.2 2233.35,-319.2 2233.35,-319.2 2233.35,-251.2 2233.35,-251.2 2233.35,-245.2 2239.35,-239.2 2245.35,-239.2 2245.35,-239.2 2452.12,-239.2 2452.12,-239.2 2458.12,-239.2 2464.12,-245.2 2464.12,-251.2 2464.12,-251.2 2464.12,-319.2 2464.12,-319.2 2464.12,-325.2 2458.12,-331.2 2452.12,-331.2"/>
<text text-anchor="start" x="2241.35" y="-314.6" font-family="Helvetica,sans-Serif" font-size="14.00">CustomerSentimentScore ≤ 0.315</text>
<text text-anchor="start" x="2312.35" y="-297.8" font-family="Helvetica,sans-Serif" font-size="14.00">gini = 0.493</text>
<text text-anchor="start" x="2306.91" y="-281" font-family="Helvetica,sans-Serif" font-size="14.00">samples = 50</text>
<text text-anchor="start" x="2289" y="-264.2" font-family="Helvetica,sans-Serif" font-size="14.00">value = [22.0, 28.0]</text>
<text text-anchor="start" x="2320.92" y="-247.4" font-family="Helvetica,sans-Serif" font-size="14.00">class = 1</text>
</g>
<!-- 29&#45;&gt;37 -->
<g id="edge37" class="edge">
<title>29-&gt;37</title>
<path fill="none" stroke="black" d="M2269.51,-366.71C2278.11,-357.97 2287.2,-348.74 2296.02,-339.77"/>
<polygon fill="black" stroke="black" points="2298.46,-342.28 2302.98,-332.7 2293.47,-337.37 2298.46,-342.28"/>
</g>
<!-- 31 -->
<g id="node32" class="node">
<title>31</title>
<path fill="#f4caab" stroke="black" d="M1936.42,-203.2C1936.42,-203.2 1837.06,-203.2 1837.06,-203.2 1831.06,-203.2 1825.06,-197.2 1825.06,-191.2 1825.06,-191.2 1825.06,-123.2 1825.06,-123.2 1825.06,-117.2 1831.06,-111.2 1837.06,-111.2 1837.06,-111.2 1936.42,-111.2 1936.42,-111.2 1942.42,-111.2 1948.42,-117.2 1948.42,-123.2 1948.42,-123.2 1948.42,-191.2 1948.42,-191.2 1948.42,-197.2 1942.42,-203.2 1936.42,-203.2"/>
<text text-anchor="start" x="1833.06" y="-186.6" font-family="Helvetica,sans-Serif" font-size="14.00">CityTier ≤ -0.179</text>
<text text-anchor="start" x="1850.35" y="-169.8" font-family="Helvetica,sans-Serif" font-size="14.00">gini = 0.464</text>
<text text-anchor="start" x="1844.91" y="-153" font-family="Helvetica,sans-Serif" font-size="14.00">samples = 52</text>
<text text-anchor="start" x="1838.68" y="-136.2" font-family="Helvetica,sans-Serif" font-size="14.00">value = [33, 19]</text>
<text text-anchor="start" x="1858.92" y="-119.4" font-family="Helvetica,sans-Serif" font-size="14.00">class = 0</text>
</g>
<!-- 30&#45;&gt;31 -->
<g id="edge31" class="edge">
<title>30-&gt;31</title>
<path fill="none" stroke="black" d="M2018.42,-238.81C2000.56,-228.81 1981.73,-218.05 1958.63,-204.27"/>
<polygon fill="black" stroke="black" points="1960.5,-201.31 1950.12,-199.17 1956.9,-207.32 1960.5,-201.31"/>
</g>
<!-- 34 -->
<g id="node35" class="node">
<title>34</title>
<path fill="#e78b49" stroke="black" d="M2225.34,-203.2C2225.34,-203.2 1978.14,-203.2 1978.14,-203.2 1972.14,-203.2 1966.14,-197.2 1966.14,-191.2 1966.14,-191.2 1966.14,-123.2 1966.14,-123.2 1966.14,-117.2 1972.14,-111.2 1978.14,-111.2 1978.14,-111.2 2225.34,-111.2 2225.34,-111.2 2231.34,-111.2 2237.34,-117.2 2237.34,-123.2 2237.34,-123.2 2237.34,-191.2 2237.34,-191.2 2237.34,-197.2 2231.34,-203.2 2225.34,-203.2"/>
<text text-anchor="start" x="1974.14" y="-186.6" font-family="Helvetica,sans-Serif" font-size="14.00">OrderAmountHikeFromlastYear ≤ -0.811</text>
<text text-anchor="start" x="2065.35" y="-169.8" font-family="Helvetica,sans-Serif" font-size="14.00">gini = 0.141</text>
<text text-anchor="start" x="2056.02" y="-153" font-family="Helvetica,sans-Serif" font-size="14.00">samples = 105</text>
<text text-anchor="start" x="2057.57" y="-136.2" font-family="Helvetica,sans-Serif" font-size="14.00">value = [97, 8]</text>
<text text-anchor="start" x="2073.92" y="-119.4" font-family="Helvetica,sans-Serif" font-size="14.00">class = 0</text>
</g>
<!-- 30&#45;&gt;34 -->
<g id="edge34" class="edge">
<title>30-&gt;34</title>
<path fill="none" stroke="black" d="M2101.74,-238.71C2101.74,-231.04 2101.74,-222.99 2101.74,-215.07"/>
<polygon fill="black" stroke="black" points="2105.24,-215.14 2101.74,-205.14 2098.24,-215.14 2105.24,-215.14"/>
</g>
<!-- 32 -->
<g id="node33" class="node">
<title>32</title>
<path fill="#efaf82" stroke="black" d="M1806.8,-75.2C1806.8,-75.2 1718.68,-75.2 1718.68,-75.2 1712.68,-75.2 1706.68,-69.2 1706.68,-63.2 1706.68,-63.2 1706.68,-12 1706.68,-12 1706.68,-6 1712.68,0 1718.68,0 1718.68,0 1806.8,0 1806.8,0 1812.8,0 1818.8,-6 1818.8,-12 1818.8,-12 1818.8,-63.2 1818.8,-63.2 1818.8,-69.2 1812.8,-75.2 1806.8,-75.2"/>
<text text-anchor="start" x="1726.35" y="-58.6" font-family="Helvetica,sans-Serif" font-size="14.00">gini = 0.393</text>
<text text-anchor="start" x="1720.91" y="-41.8" font-family="Helvetica,sans-Serif" font-size="14.00">samples = 41</text>
<text text-anchor="start" x="1714.68" y="-25" font-family="Helvetica,sans-Serif" font-size="14.00">value = [30, 11]</text>
<text text-anchor="start" x="1734.92" y="-8.2" font-family="Helvetica,sans-Serif" font-size="14.00">class = 0</text>
</g>
<!-- 31&#45;&gt;32 -->
<g id="edge32" class="edge">
<title>31-&gt;32</title>
<path fill="none" stroke="black" d="M1838.8,-110.73C1829.31,-101.73 1819.36,-92.3 1809.9,-83.32"/>
<polygon fill="black" stroke="black" points="1812.49,-80.96 1802.83,-76.62 1807.68,-86.04 1812.49,-80.96"/>
</g>
<!-- 33 -->
<g id="node34" class="node">
<title>33</title>
<path fill="#83c2ef" stroke="black" d="M1924.57,-75.2C1924.57,-75.2 1848.91,-75.2 1848.91,-75.2 1842.91,-75.2 1836.91,-69.2 1836.91,-63.2 1836.91,-63.2 1836.91,-12 1836.91,-12 1836.91,-6 1842.91,0 1848.91,0 1848.91,0 1924.57,0 1924.57,0 1930.57,0 1936.57,-6 1936.57,-12 1936.57,-12 1936.57,-63.2 1936.57,-63.2 1936.57,-69.2 1930.57,-75.2 1924.57,-75.2"/>
<text text-anchor="start" x="1850.35" y="-58.6" font-family="Helvetica,sans-Serif" font-size="14.00">gini = 0.397</text>
<text text-anchor="start" x="1844.91" y="-41.8" font-family="Helvetica,sans-Serif" font-size="14.00">samples = 11</text>
<text text-anchor="start" x="1846.46" y="-25" font-family="Helvetica,sans-Serif" font-size="14.00">value = [3, 8]</text>
<text text-anchor="start" x="1858.92" y="-8.2" font-family="Helvetica,sans-Serif" font-size="14.00">class = 1</text>
</g>
<!-- 31&#45;&gt;33 -->
<g id="edge33" class="edge">
<title>31-&gt;33</title>
<path fill="none" stroke="black" d="M1886.74,-110.73C1886.74,-102.92 1886.74,-94.77 1886.74,-86.88"/>
<polygon fill="black" stroke="black" points="1890.24,-87.09 1886.74,-77.09 1883.24,-87.09 1890.24,-87.09"/>
</g>
<!-- 35 -->
<g id="node36" class="node">
<title>35</title>
<path fill="#f6d5bd" stroke="black" d="M2042.57,-75.2C2042.57,-75.2 1966.91,-75.2 1966.91,-75.2 1960.91,-75.2 1954.91,-69.2 1954.91,-63.2 1954.91,-63.2 1954.91,-12 1954.91,-12 1954.91,-6 1960.91,0 1966.91,0 1966.91,0 2042.57,0 2042.57,0 2048.57,0 2054.57,-6 2054.57,-12 2054.57,-12 2054.57,-63.2 2054.57,-63.2 2054.57,-69.2 2048.57,-75.2 2042.57,-75.2"/>
<text text-anchor="start" x="1972.24" y="-58.6" font-family="Helvetica,sans-Serif" font-size="14.00">gini = 0.48</text>
<text text-anchor="start" x="1962.91" y="-41.8" font-family="Helvetica,sans-Serif" font-size="14.00">samples = 10</text>
<text text-anchor="start" x="1964.46" y="-25" font-family="Helvetica,sans-Serif" font-size="14.00">value = [6, 4]</text>
<text text-anchor="start" x="1976.92" y="-8.2" font-family="Helvetica,sans-Serif" font-size="14.00">class = 0</text>
</g>
<!-- 34&#45;&gt;35 -->
<g id="edge35" class="edge">
<title>34-&gt;35</title>
<path fill="none" stroke="black" d="M2064.24,-110.73C2057.11,-102.1 2049.66,-93.06 2042.53,-84.41"/>
<polygon fill="black" stroke="black" points="2045.27,-82.23 2036.2,-76.75 2039.87,-86.69 2045.27,-82.23"/>
</g>
<!-- 36 -->
<g id="node37" class="node">
<title>36</title>
<path fill="#e68742" stroke="black" d="M2164.91,-75.2C2164.91,-75.2 2084.57,-75.2 2084.57,-75.2 2078.57,-75.2 2072.57,-69.2 2072.57,-63.2 2072.57,-63.2 2072.57,-12 2072.57,-12 2072.57,-6 2078.57,0 2084.57,0 2084.57,0 2164.91,0 2164.91,0 2170.91,0 2176.91,-6 2176.91,-12 2176.91,-12 2176.91,-63.2 2176.91,-63.2 2176.91,-69.2 2170.91,-75.2 2164.91,-75.2"/>
<text text-anchor="start" x="2088.35" y="-58.6" font-family="Helvetica,sans-Serif" font-size="14.00">gini = 0.081</text>
<text text-anchor="start" x="2082.91" y="-41.8" font-family="Helvetica,sans-Serif" font-size="14.00">samples = 95</text>
<text text-anchor="start" x="2080.57" y="-25" font-family="Helvetica,sans-Serif" font-size="14.00">value = [91, 4]</text>
<text text-anchor="start" x="2096.92" y="-8.2" font-family="Helvetica,sans-Serif" font-size="14.00">class = 0</text>
</g>
<!-- 34&#45;&gt;36 -->
<g id="edge36" class="edge">
<title>34-&gt;36</title>
<path fill="none" stroke="black" d="M2110.63,-110.73C2112.18,-102.83 2113.79,-94.58 2115.35,-86.61"/>
<polygon fill="black" stroke="black" points="2118.73,-87.55 2117.22,-77.07 2111.86,-86.21 2118.73,-87.55"/>
</g>
<!-- 38 -->
<g id="node39" class="node">
<title>38</title>
<path fill="#f3c3a1" stroke="black" d="M2429.95,-203.2C2429.95,-203.2 2267.53,-203.2 2267.53,-203.2 2261.53,-203.2 2255.53,-197.2 2255.53,-191.2 2255.53,-191.2 2255.53,-123.2 2255.53,-123.2 2255.53,-117.2 2261.53,-111.2 2267.53,-111.2 2267.53,-111.2 2429.95,-111.2 2429.95,-111.2 2435.95,-111.2 2441.95,-117.2 2441.95,-123.2 2441.95,-123.2 2441.95,-191.2 2441.95,-191.2 2441.95,-197.2 2435.95,-203.2 2429.95,-203.2"/>
<text text-anchor="start" x="2263.53" y="-186.6" font-family="Helvetica,sans-Serif" font-size="14.00">NumberOfAddress ≤ 0.115</text>
<text text-anchor="start" x="2312.35" y="-169.8" font-family="Helvetica,sans-Serif" font-size="14.00">gini = 0.452</text>
<text text-anchor="start" x="2306.91" y="-153" font-family="Helvetica,sans-Serif" font-size="14.00">samples = 29</text>
<text text-anchor="start" x="2300.68" y="-136.2" font-family="Helvetica,sans-Serif" font-size="14.00">value = [19, 10]</text>
<text text-anchor="start" x="2320.92" y="-119.4" font-family="Helvetica,sans-Serif" font-size="14.00">class = 0</text>
</g>
<!-- 37&#45;&gt;38 -->
<g id="edge38" class="edge">
<title>37-&gt;38</title>
<path fill="none" stroke="black" d="M2348.74,-238.71C2348.74,-231.04 2348.74,-222.99 2348.74,-215.07"/>
<polygon fill="black" stroke="black" points="2352.24,-215.14 2348.74,-205.14 2345.24,-215.14 2352.24,-215.14"/>
</g>
<!-- 41 -->
<g id="node42" class="node">
<title>41</title>
<path fill="#5aade9" stroke="black" d="M2501.74,-175.2C2501.74,-175.2 2471.74,-175.2 2471.74,-175.2 2465.74,-175.2 2459.74,-169.2 2459.74,-163.2 2459.74,-163.2 2459.74,-151.2 2459.74,-151.2 2459.74,-145.2 2465.74,-139.2 2471.74,-139.2 2471.74,-139.2 2501.74,-139.2 2501.74,-139.2 2507.74,-139.2 2513.74,-145.2 2513.74,-151.2 2513.74,-151.2 2513.74,-163.2 2513.74,-163.2 2513.74,-169.2 2507.74,-175.2 2501.74,-175.2"/>
</g>
<!-- 37&#45;&gt;41 -->
<g id="edge41" class="edge">
<title>37-&gt;41</title>
<path fill="none" stroke="black" d="M2410.52,-238.8C2424.26,-227.71 2438.41,-215.49 2450.74,-203.2 2456.45,-197.51 2462.14,-190.94 2467.25,-184.61"/>
<polygon fill="black" stroke="black" points="2469.93,-186.86 2473.32,-176.82 2464.41,-182.55 2469.93,-186.86"/>
</g>
<!-- 39 -->
<g id="node40" class="node">
<title>39</title>
<path fill="#ea9c63" stroke="black" d="M2286.91,-75.2C2286.91,-75.2 2206.57,-75.2 2206.57,-75.2 2200.57,-75.2 2194.57,-69.2 2194.57,-63.2 2194.57,-63.2 2194.57,-12 2194.57,-12 2194.57,-6 2200.57,0 2206.57,0 2206.57,0 2286.91,0 2286.91,0 2292.91,0 2298.91,-6 2298.91,-12 2298.91,-12 2298.91,-63.2 2298.91,-63.2 2298.91,-69.2 2292.91,-75.2 2286.91,-75.2"/>
<text text-anchor="start" x="2210.35" y="-58.6" font-family="Helvetica,sans-Serif" font-size="14.00">gini = 0.287</text>
<text text-anchor="start" x="2204.91" y="-41.8" font-family="Helvetica,sans-Serif" font-size="14.00">samples = 23</text>
<text text-anchor="start" x="2202.57" y="-25" font-family="Helvetica,sans-Serif" font-size="14.00">value = [19, 4]</text>
<text text-anchor="start" x="2218.92" y="-8.2" font-family="Helvetica,sans-Serif" font-size="14.00">class = 0</text>
</g>
<!-- 38&#45;&gt;39 -->
<g id="edge39" class="edge">
<title>38-&gt;39</title>
<path fill="none" stroke="black" d="M2309.3,-110.73C2301.74,-102.01 2293.81,-92.87 2286.24,-84.14"/>
<polygon fill="black" stroke="black" points="2289,-81.98 2279.81,-76.72 2283.71,-86.57 2289,-81.98"/>
</g>
<!-- 40 -->
<g id="node41" class="node">
<title>40</title>
<path fill="#399de5" stroke="black" d="M2401.02,-75.2C2401.02,-75.2 2328.46,-75.2 2328.46,-75.2 2322.46,-75.2 2316.46,-69.2 2316.46,-63.2 2316.46,-63.2 2316.46,-12 2316.46,-12 2316.46,-6 2322.46,0 2328.46,0 2328.46,0 2401.02,0 2401.02,0 2407.02,0 2413.02,-6 2413.02,-12 2413.02,-12 2413.02,-63.2 2413.02,-63.2 2413.02,-69.2 2407.02,-75.2 2401.02,-75.2"/>
<text text-anchor="start" x="2336.13" y="-58.6" font-family="Helvetica,sans-Serif" font-size="14.00">gini = 0.0</text>
<text text-anchor="start" x="2326.8" y="-41.8" font-family="Helvetica,sans-Serif" font-size="14.00">samples = 6</text>
<text text-anchor="start" x="2324.46" y="-25" font-family="Helvetica,sans-Serif" font-size="14.00">value = [0, 6]</text>
<text text-anchor="start" x="2336.92" y="-8.2" font-family="Helvetica,sans-Serif" font-size="14.00">class = 1</text>
</g>
<!-- 38&#45;&gt;40 -->
<g id="edge40" class="edge">
<title>38-&gt;40</title>
<path fill="none" stroke="black" d="M2354.93,-110.73C2355.99,-102.92 2357.1,-94.77 2358.17,-86.88"/>
<polygon fill="black" stroke="black" points="2361.62,-87.46 2359.5,-77.08 2354.69,-86.52 2361.62,-87.46"/>
</g>
<!-- 42 -->
<g id="node43" class="node">
<title>42</title>
<path fill="#4fa8e8" stroke="black" d="M2522.91,-75.2C2522.91,-75.2 2442.57,-75.2 2442.57,-75.2 2436.57,-75.2 2430.57,-69.2 2430.57,-63.2 2430.57,-63.2 2430.57,-12 2430.57,-12 2430.57,-6 2436.57,0 2442.57,0 2442.57,0 2522.91,0 2522.91,0 2528.91,0 2534.91,-6 2534.91,-12 2534.91,-12 2534.91,-63.2 2534.91,-63.2 2534.91,-69.2 2528.91,-75.2 2522.91,-75.2"/>
<text text-anchor="start" x="2450.24" y="-58.6" font-family="Helvetica,sans-Serif" font-size="14.00">gini = 0.18</text>
<text text-anchor="start" x="2440.91" y="-41.8" font-family="Helvetica,sans-Serif" font-size="14.00">samples = 20</text>
<text text-anchor="start" x="2438.57" y="-25" font-family="Helvetica,sans-Serif" font-size="14.00">value = [2, 18]</text>
<text text-anchor="start" x="2454.92" y="-8.2" font-family="Helvetica,sans-Serif" font-size="14.00">class = 1</text>
</g>
<!-- 41&#45;&gt;42 -->
<g id="edge42" class="edge">
<title>41-&gt;42</title>
<path fill="none" stroke="black" d="M2486.15,-138.85C2485.68,-125.16 2485.01,-105.36 2484.38,-86.98"/>
<polygon fill="black" stroke="black" points="2487.88,-86.86 2484.05,-76.99 2480.89,-87.1 2487.88,-86.86"/>
</g>
<!-- 43 -->
<g id="node44" class="node">
<title>43</title>
<path fill="#e58139" stroke="black" d="M2637.02,-75.2C2637.02,-75.2 2564.46,-75.2 2564.46,-75.2 2558.46,-75.2 2552.46,-69.2 2552.46,-63.2 2552.46,-63.2 2552.46,-12 2552.46,-12 2552.46,-6 2558.46,0 2564.46,0 2564.46,0 2637.02,0 2637.02,0 2643.02,0 2649.02,-6 2649.02,-12 2649.02,-12 2649.02,-63.2 2649.02,-63.2 2649.02,-69.2 2643.02,-75.2 2637.02,-75.2"/>
<text text-anchor="start" x="2572.13" y="-58.6" font-family="Helvetica,sans-Serif" font-size="14.00">gini = 0.0</text>
<text text-anchor="start" x="2562.8" y="-41.8" font-family="Helvetica,sans-Serif" font-size="14.00">samples = 1</text>
<text text-anchor="start" x="2560.46" y="-25" font-family="Helvetica,sans-Serif" font-size="14.00">value = [1, 0]</text>
<text text-anchor="start" x="2572.92" y="-8.2" font-family="Helvetica,sans-Serif" font-size="14.00">class = 0</text>
</g>
<!-- 41&#45;&gt;43 -->
<g id="edge43" class="edge">
<title>41-&gt;43</title>
<path fill="none" stroke="black" d="M2503.56,-138.85C2517.65,-124.31 2538.41,-102.9 2557.12,-83.6"/>
<polygon fill="black" stroke="black" points="2559.49,-86.18 2563.94,-76.56 2554.46,-81.31 2559.49,-86.18"/>
</g>
<!-- 45 -->
<g id="node46" class="node">
<title>45</title>
<path fill="#e68640" stroke="black" d="M2981.95,-331.2C2981.95,-331.2 2861.53,-331.2 2861.53,-331.2 2855.53,-331.2 2849.53,-325.2 2849.53,-319.2 2849.53,-319.2 2849.53,-251.2 2849.53,-251.2 2849.53,-245.2 2855.53,-239.2 2861.53,-239.2 2861.53,-239.2 2981.95,-239.2 2981.95,-239.2 2987.95,-239.2 2993.95,-245.2 2993.95,-251.2 2993.95,-251.2 2993.95,-319.2 2993.95,-319.2 2993.95,-325.2 2987.95,-331.2 2981.95,-331.2"/>
<text text-anchor="start" x="2857.53" y="-314.6" font-family="Helvetica,sans-Serif" font-size="14.00">CouponUsed ≤ 2.55</text>
<text text-anchor="start" x="2885.35" y="-297.8" font-family="Helvetica,sans-Serif" font-size="14.00">gini = 0.068</text>
<text text-anchor="start" x="2872.12" y="-281" font-family="Helvetica,sans-Serif" font-size="14.00">samples = 2125</text>
<text text-anchor="start" x="2865.89" y="-264.2" font-family="Helvetica,sans-Serif" font-size="14.00">value = [2050, 75]</text>
<text text-anchor="start" x="2893.92" y="-247.4" font-family="Helvetica,sans-Serif" font-size="14.00">class = 0</text>
</g>
<!-- 44&#45;&gt;45 -->
<g id="edge45" class="edge">
<title>44-&gt;45</title>
<path fill="none" stroke="black" d="M2921.74,-366.71C2921.74,-359.04 2921.74,-350.99 2921.74,-343.07"/>
<polygon fill="black" stroke="black" points="2925.24,-343.14 2921.74,-333.14 2918.24,-343.14 2925.24,-343.14"/>
</g>
<!-- 52 -->
<g id="node53" class="node">
<title>52</title>
<path fill="#e99254" stroke="black" d="M3412.95,-331.2C3412.95,-331.2 3250.53,-331.2 3250.53,-331.2 3244.53,-331.2 3238.53,-325.2 3238.53,-319.2 3238.53,-319.2 3238.53,-251.2 3238.53,-251.2 3238.53,-245.2 3244.53,-239.2 3250.53,-239.2 3250.53,-239.2 3412.95,-239.2 3412.95,-239.2 3418.95,-239.2 3424.95,-245.2 3424.95,-251.2 3424.95,-251.2 3424.95,-319.2 3424.95,-319.2 3424.95,-325.2 3418.95,-331.2 3412.95,-331.2"/>
<text text-anchor="start" x="3246.53" y="-314.6" font-family="Helvetica,sans-Serif" font-size="14.00">NumberOfAddress ≤ 0.895</text>
<text text-anchor="start" x="3295.35" y="-297.8" font-family="Helvetica,sans-Serif" font-size="14.00">gini = 0.211</text>
<text text-anchor="start" x="3286.02" y="-281" font-family="Helvetica,sans-Serif" font-size="14.00">samples = 751</text>
<text text-anchor="start" x="3279.78" y="-264.2" font-family="Helvetica,sans-Serif" font-size="14.00">value = [661, 90]</text>
<text text-anchor="start" x="3303.92" y="-247.4" font-family="Helvetica,sans-Serif" font-size="14.00">class = 0</text>
</g>
<!-- 44&#45;&gt;52 -->
<g id="edge52" class="edge">
<title>44-&gt;52</title>
<path fill="none" stroke="black" d="M2989.9,-391.25C3054.58,-371.38 3152.7,-341.22 3227.25,-318.31"/>
<polygon fill="black" stroke="black" points="3228.09,-321.71 3236.62,-315.43 3226.03,-315.02 3228.09,-321.71"/>
</g>
<!-- 46 -->
<g id="node47" class="node">
<title>46</title>
<path fill="#e6853f" stroke="black" d="M2851.59,-203.2C2851.59,-203.2 2747.89,-203.2 2747.89,-203.2 2741.89,-203.2 2735.89,-197.2 2735.89,-191.2 2735.89,-191.2 2735.89,-123.2 2735.89,-123.2 2735.89,-117.2 2741.89,-111.2 2747.89,-111.2 2747.89,-111.2 2851.59,-111.2 2851.59,-111.2 2857.59,-111.2 2863.59,-117.2 2863.59,-123.2 2863.59,-123.2 2863.59,-191.2 2863.59,-191.2 2863.59,-197.2 2857.59,-203.2 2851.59,-203.2"/>
<text text-anchor="start" x="2750.32" y="-186.6" font-family="Helvetica,sans-Serif" font-size="14.00">Tenure ≤ 1.363</text>
<text text-anchor="start" x="2767.24" y="-169.8" font-family="Helvetica,sans-Serif" font-size="14.00">gini = 0.06</text>
<text text-anchor="start" x="2750.12" y="-153" font-family="Helvetica,sans-Serif" font-size="14.00">samples = 2031</text>
<text text-anchor="start" x="2743.89" y="-136.2" font-family="Helvetica,sans-Serif" font-size="14.00">value = [1968, 63]</text>
<text text-anchor="start" x="2771.92" y="-119.4" font-family="Helvetica,sans-Serif" font-size="14.00">class = 0</text>
</g>
<!-- 45&#45;&gt;46 -->
<g id="edge46" class="edge">
<title>45-&gt;46</title>
<path fill="none" stroke="black" d="M2877.69,-238.71C2869.23,-229.97 2860.29,-220.74 2851.6,-211.77"/>
<polygon fill="black" stroke="black" points="2854.24,-209.46 2844.77,-204.71 2849.21,-214.33 2854.24,-209.46"/>
</g>
<!-- 49 -->
<g id="node50" class="node">
<title>49</title>
<path fill="#e99356" stroke="black" d="M3195.97,-203.2C3195.97,-203.2 2893.51,-203.2 2893.51,-203.2 2887.51,-203.2 2881.51,-197.2 2881.51,-191.2 2881.51,-191.2 2881.51,-123.2 2881.51,-123.2 2881.51,-117.2 2887.51,-111.2 2893.51,-111.2 2893.51,-111.2 3195.97,-111.2 3195.97,-111.2 3201.97,-111.2 3207.97,-117.2 3207.97,-123.2 3207.97,-123.2 3207.97,-191.2 3207.97,-191.2 3207.97,-197.2 3201.97,-203.2 3195.97,-203.2"/>
<text text-anchor="start" x="2889.51" y="-186.6" font-family="Helvetica,sans-Serif" font-size="14.00">RFMCustomerSegment_Average Customer ≤ 0.5</text>
<text text-anchor="start" x="3008.35" y="-169.8" font-family="Helvetica,sans-Serif" font-size="14.00">gini = 0.223</text>
<text text-anchor="start" x="3002.91" y="-153" font-family="Helvetica,sans-Serif" font-size="14.00">samples = 94</text>
<text text-anchor="start" x="2985" y="-136.2" font-family="Helvetica,sans-Serif" font-size="14.00">value = [82.0, 12.0]</text>
<text text-anchor="start" x="3016.92" y="-119.4" font-family="Helvetica,sans-Serif" font-size="14.00">class = 0</text>
</g>
<!-- 45&#45;&gt;49 -->
<g id="edge49" class="edge">
<title>45-&gt;49</title>
<path fill="none" stroke="black" d="M2966.15,-238.71C2974.68,-229.97 2983.69,-220.74 2992.45,-211.77"/>
<polygon fill="black" stroke="black" points="2994.86,-214.31 2999.34,-204.71 2989.85,-209.42 2994.86,-214.31"/>
</g>
<!-- 47 -->
<g id="node48" class="node">
<title>47</title>
<path fill="#e68641" stroke="black" d="M2782.59,-75.2C2782.59,-75.2 2678.89,-75.2 2678.89,-75.2 2672.89,-75.2 2666.89,-69.2 2666.89,-63.2 2666.89,-63.2 2666.89,-12 2666.89,-12 2666.89,-6 2672.89,0 2678.89,0 2678.89,0 2782.59,0 2782.59,0 2788.59,0 2794.59,-6 2794.59,-12 2794.59,-12 2794.59,-63.2 2794.59,-63.2 2794.59,-69.2 2788.59,-75.2 2782.59,-75.2"/>
<text text-anchor="start" x="2694.35" y="-58.6" font-family="Helvetica,sans-Serif" font-size="14.00">gini = 0.071</text>
<text text-anchor="start" x="2681.12" y="-41.8" font-family="Helvetica,sans-Serif" font-size="14.00">samples = 1709</text>
<text text-anchor="start" x="2674.89" y="-25" font-family="Helvetica,sans-Serif" font-size="14.00">value = [1646, 63]</text>
<text text-anchor="start" x="2702.92" y="-8.2" font-family="Helvetica,sans-Serif" font-size="14.00">class = 0</text>
</g>
<!-- 46&#45;&gt;47 -->
<g id="edge47" class="edge">
<title>46-&gt;47</title>
<path fill="none" stroke="black" d="M2773.06,-110.73C2768.21,-102.46 2763.14,-93.82 2758.26,-85.51"/>
<polygon fill="black" stroke="black" points="2761.28,-83.74 2753.2,-76.89 2755.24,-87.28 2761.28,-83.74"/>
</g>
<!-- 48 -->
<g id="node49" class="node">
<title>48</title>
<path fill="#e58139" stroke="black" d="M2912.8,-75.2C2912.8,-75.2 2824.68,-75.2 2824.68,-75.2 2818.68,-75.2 2812.68,-69.2 2812.68,-63.2 2812.68,-63.2 2812.68,-12 2812.68,-12 2812.68,-6 2818.68,0 2824.68,0 2824.68,0 2912.8,0 2912.8,0 2918.8,0 2924.8,-6 2924.8,-12 2924.8,-12 2924.8,-63.2 2924.8,-63.2 2924.8,-69.2 2918.8,-75.2 2912.8,-75.2"/>
<text text-anchor="start" x="2840.13" y="-58.6" font-family="Helvetica,sans-Serif" font-size="14.00">gini = 0.0</text>
<text text-anchor="start" x="2823.02" y="-41.8" font-family="Helvetica,sans-Serif" font-size="14.00">samples = 322</text>
<text text-anchor="start" x="2820.68" y="-25" font-family="Helvetica,sans-Serif" font-size="14.00">value = [322, 0]</text>
<text text-anchor="start" x="2840.92" y="-8.2" font-family="Helvetica,sans-Serif" font-size="14.00">class = 0</text>
</g>
<!-- 46&#45;&gt;48 -->
<g id="edge48" class="edge">
<title>46-&gt;48</title>
<path fill="none" stroke="black" d="M2826.42,-110.73C2831.27,-102.46 2836.34,-93.82 2841.22,-85.51"/>
<polygon fill="black" stroke="black" points="2844.23,-87.28 2846.28,-76.89 2838.2,-83.74 2844.23,-87.28"/>
</g>
<!-- 50 -->
<g id="node51" class="node">
<title>50</title>
<path fill="#e89051" stroke="black" d="M3042.8,-75.2C3042.8,-75.2 2954.68,-75.2 2954.68,-75.2 2948.68,-75.2 2942.68,-69.2 2942.68,-63.2 2942.68,-63.2 2942.68,-12 2942.68,-12 2942.68,-6 2948.68,0 2954.68,0 2954.68,0 3042.8,0 3042.8,0 3048.8,0 3054.8,-6 3054.8,-12 3054.8,-12 3054.8,-63.2 3054.8,-63.2 3054.8,-69.2 3048.8,-75.2 3042.8,-75.2"/>
<text text-anchor="start" x="2962.35" y="-58.6" font-family="Helvetica,sans-Serif" font-size="14.00">gini = 0.194</text>
<text text-anchor="start" x="2956.91" y="-41.8" font-family="Helvetica,sans-Serif" font-size="14.00">samples = 92</text>
<text text-anchor="start" x="2950.68" y="-25" font-family="Helvetica,sans-Serif" font-size="14.00">value = [82, 10]</text>
<text text-anchor="start" x="2970.92" y="-8.2" font-family="Helvetica,sans-Serif" font-size="14.00">class = 0</text>
</g>
<!-- 49&#45;&gt;50 -->
<g id="edge50" class="edge">
<title>49-&gt;50</title>
<path fill="none" stroke="black" d="M3026.95,-110.73C3023.79,-102.64 3020.49,-94.2 3017.3,-86.06"/>
<polygon fill="black" stroke="black" points="3020.66,-85.03 3013.76,-76.99 3014.14,-87.58 3020.66,-85.03"/>
</g>
<!-- 51 -->
<g id="node52" class="node">
<title>51</title>
<path fill="#399de5" stroke="black" d="M3157.02,-75.2C3157.02,-75.2 3084.46,-75.2 3084.46,-75.2 3078.46,-75.2 3072.46,-69.2 3072.46,-63.2 3072.46,-63.2 3072.46,-12 3072.46,-12 3072.46,-6 3078.46,0 3084.46,0 3084.46,0 3157.02,0 3157.02,0 3163.02,0 3169.02,-6 3169.02,-12 3169.02,-12 3169.02,-63.2 3169.02,-63.2 3169.02,-69.2 3163.02,-75.2 3157.02,-75.2"/>
<text text-anchor="start" x="3092.13" y="-58.6" font-family="Helvetica,sans-Serif" font-size="14.00">gini = 0.0</text>
<text text-anchor="start" x="3082.8" y="-41.8" font-family="Helvetica,sans-Serif" font-size="14.00">samples = 2</text>
<text text-anchor="start" x="3080.46" y="-25" font-family="Helvetica,sans-Serif" font-size="14.00">value = [0, 2]</text>
<text text-anchor="start" x="3092.92" y="-8.2" font-family="Helvetica,sans-Serif" font-size="14.00">class = 1</text>
</g>
<!-- 49&#45;&gt;51 -->
<g id="edge51" class="edge">
<title>49-&gt;51</title>
<path fill="none" stroke="black" d="M3074.12,-110.73C3079.53,-102.37 3085.18,-93.63 3090.6,-85.23"/>
<polygon fill="black" stroke="black" points="3093.53,-87.15 3096.02,-76.85 3087.65,-83.35 3093.53,-87.15"/>
</g>
<!-- 53 -->
<g id="node54" class="node">
<title>53</title>
<path fill="#e78c4b" stroke="black" d="M3379.7,-203.2C3379.7,-203.2 3283.78,-203.2 3283.78,-203.2 3277.78,-203.2 3271.78,-197.2 3271.78,-191.2 3271.78,-191.2 3271.78,-123.2 3271.78,-123.2 3271.78,-117.2 3277.78,-111.2 3283.78,-111.2 3283.78,-111.2 3379.7,-111.2 3379.7,-111.2 3385.7,-111.2 3391.7,-117.2 3391.7,-123.2 3391.7,-123.2 3391.7,-191.2 3391.7,-191.2 3391.7,-197.2 3385.7,-203.2 3379.7,-203.2"/>
<text text-anchor="start" x="3282.32" y="-186.6" font-family="Helvetica,sans-Serif" font-size="14.00">Tenure ≤ 0.526</text>
<text text-anchor="start" x="3295.35" y="-169.8" font-family="Helvetica,sans-Serif" font-size="14.00">gini = 0.152</text>
<text text-anchor="start" x="3286.02" y="-153" font-family="Helvetica,sans-Serif" font-size="14.00">samples = 615</text>
<text text-anchor="start" x="3279.78" y="-136.2" font-family="Helvetica,sans-Serif" font-size="14.00">value = [564, 51]</text>
<text text-anchor="start" x="3303.92" y="-119.4" font-family="Helvetica,sans-Serif" font-size="14.00">class = 0</text>
</g>
<!-- 52&#45;&gt;53 -->
<g id="edge53" class="edge">
<title>52-&gt;53</title>
<path fill="none" stroke="black" d="M3331.74,-238.71C3331.74,-231.04 3331.74,-222.99 3331.74,-215.07"/>
<polygon fill="black" stroke="black" points="3335.24,-215.14 3331.74,-205.14 3328.24,-215.14 3335.24,-215.14"/>
</g>
<!-- 56 -->
<g id="node57" class="node">
<title>56</title>
<path fill="#efb489" stroke="black" d="M3549.74,-175.2C3549.74,-175.2 3519.74,-175.2 3519.74,-175.2 3513.74,-175.2 3507.74,-169.2 3507.74,-163.2 3507.74,-163.2 3507.74,-151.2 3507.74,-151.2 3507.74,-145.2 3513.74,-139.2 3519.74,-139.2 3519.74,-139.2 3549.74,-139.2 3549.74,-139.2 3555.74,-139.2 3561.74,-145.2 3561.74,-151.2 3561.74,-151.2 3561.74,-163.2 3561.74,-163.2 3561.74,-169.2 3555.74,-175.2 3549.74,-175.2"/>
</g>
<!-- 52&#45;&gt;56 -->
<g id="edge56" class="edge">
<title>52-&gt;56</title>
<path fill="none" stroke="black" d="M3405.03,-238.71C3436.51,-219.17 3471.92,-197.19 3497.78,-181.14"/>
<polygon fill="black" stroke="black" points="3499.61,-184.12 3506.26,-175.88 3495.92,-178.18 3499.61,-184.12"/>
</g>
<!-- 54 -->
<g id="node55" class="node">
<title>54</title>
<path fill="#e99558" stroke="black" d="M3318.37,-75.2C3318.37,-75.2 3199.11,-75.2 3199.11,-75.2 3193.11,-75.2 3187.11,-69.2 3187.11,-63.2 3187.11,-63.2 3187.11,-12 3187.11,-12 3187.11,-6 3193.11,0 3199.11,0 3199.11,0 3318.37,0 3318.37,0 3324.37,0 3330.37,-6 3330.37,-12 3330.37,-12 3330.37,-63.2 3330.37,-63.2 3330.37,-69.2 3324.37,-75.2 3318.37,-75.2"/>
<text text-anchor="start" x="3222.35" y="-58.6" font-family="Helvetica,sans-Serif" font-size="14.00">gini = 0.233</text>
<text text-anchor="start" x="3213.02" y="-41.8" font-family="Helvetica,sans-Serif" font-size="14.00">samples = 371</text>
<text text-anchor="start" x="3195.11" y="-25" font-family="Helvetica,sans-Serif" font-size="14.00">value = [321.0, 50.0]</text>
<text text-anchor="start" x="3230.92" y="-8.2" font-family="Helvetica,sans-Serif" font-size="14.00">class = 0</text>
</g>
<!-- 53&#45;&gt;54 -->
<g id="edge54" class="edge">
<title>53-&gt;54</title>
<path fill="none" stroke="black" d="M3303.52,-110.73C3298.32,-102.37 3292.9,-93.63 3287.69,-85.23"/>
<polygon fill="black" stroke="black" points="3290.74,-83.52 3282.49,-76.87 3284.79,-87.21 3290.74,-83.52"/>
</g>
<!-- 55 -->
<g id="node56" class="node">
<title>55</title>
<path fill="#e5823a" stroke="black" d="M3448.8,-75.2C3448.8,-75.2 3360.68,-75.2 3360.68,-75.2 3354.68,-75.2 3348.68,-69.2 3348.68,-63.2 3348.68,-63.2 3348.68,-12 3348.68,-12 3348.68,-6 3354.68,0 3360.68,0 3360.68,0 3448.8,0 3448.8,0 3454.8,0 3460.8,-6 3460.8,-12 3460.8,-12 3460.8,-63.2 3460.8,-63.2 3460.8,-69.2 3454.8,-75.2 3448.8,-75.2"/>
<text text-anchor="start" x="3368.35" y="-58.6" font-family="Helvetica,sans-Serif" font-size="14.00">gini = 0.008</text>
<text text-anchor="start" x="3359.02" y="-41.8" font-family="Helvetica,sans-Serif" font-size="14.00">samples = 244</text>
<text text-anchor="start" x="3356.68" y="-25" font-family="Helvetica,sans-Serif" font-size="14.00">value = [243, 1]</text>
<text text-anchor="start" x="3376.92" y="-8.2" font-family="Helvetica,sans-Serif" font-size="14.00">class = 0</text>
</g>
<!-- 53&#45;&gt;55 -->
<g id="edge55" class="edge">
<title>53-&gt;55</title>
<path fill="none" stroke="black" d="M3359.96,-110.73C3365.15,-102.37 3370.58,-93.63 3375.79,-85.23"/>
<polygon fill="black" stroke="black" points="3378.69,-87.21 3380.99,-76.87 3372.74,-83.52 3378.69,-87.21"/>
</g>
<!-- 57 -->
<g id="node58" class="node">
<title>57</title>
<path fill="#f8dbc6" stroke="black" d="M3578.8,-75.2C3578.8,-75.2 3490.68,-75.2 3490.68,-75.2 3484.68,-75.2 3478.68,-69.2 3478.68,-63.2 3478.68,-63.2 3478.68,-12 3478.68,-12 3478.68,-6 3484.68,0 3490.68,0 3490.68,0 3578.8,0 3578.8,0 3584.8,0 3590.8,-6 3590.8,-12 3590.8,-12 3590.8,-63.2 3590.8,-63.2 3590.8,-69.2 3584.8,-75.2 3578.8,-75.2"/>
<text text-anchor="start" x="3498.35" y="-58.6" font-family="Helvetica,sans-Serif" font-size="14.00">gini = 0.486</text>
<text text-anchor="start" x="3492.91" y="-41.8" font-family="Helvetica,sans-Serif" font-size="14.00">samples = 84</text>
<text text-anchor="start" x="3486.68" y="-25" font-family="Helvetica,sans-Serif" font-size="14.00">value = [49, 35]</text>
<text text-anchor="start" x="3506.92" y="-8.2" font-family="Helvetica,sans-Serif" font-size="14.00">class = 0</text>
</g>
<!-- 56&#45;&gt;57 -->
<g id="edge57" class="edge">
<title>56-&gt;57</title>
<path fill="none" stroke="black" d="M3534.74,-138.85C3534.74,-125.16 3534.74,-105.36 3534.74,-86.98"/>
<polygon fill="black" stroke="black" points="3538.24,-86.99 3534.74,-76.99 3531.24,-86.99 3538.24,-86.99"/>
</g>
<!-- 58 -->
<g id="node59" class="node">
<title>58</title>
<path fill="#e78c49" stroke="black" d="M3700.91,-75.2C3700.91,-75.2 3620.57,-75.2 3620.57,-75.2 3614.57,-75.2 3608.57,-69.2 3608.57,-63.2 3608.57,-63.2 3608.57,-12 3608.57,-12 3608.57,-6 3614.57,0 3620.57,0 3620.57,0 3700.91,0 3700.91,0 3706.91,0 3712.91,-6 3712.91,-12 3712.91,-12 3712.91,-63.2 3712.91,-63.2 3712.91,-69.2 3706.91,-75.2 3700.91,-75.2"/>
<text text-anchor="start" x="3624.35" y="-58.6" font-family="Helvetica,sans-Serif" font-size="14.00">gini = 0.142</text>
<text text-anchor="start" x="3618.91" y="-41.8" font-family="Helvetica,sans-Serif" font-size="14.00">samples = 52</text>
<text text-anchor="start" x="3616.57" y="-25" font-family="Helvetica,sans-Serif" font-size="14.00">value = [48, 4]</text>
<text text-anchor="start" x="3632.92" y="-8.2" font-family="Helvetica,sans-Serif" font-size="14.00">class = 0</text>
</g>
<!-- 56&#45;&gt;58 -->
<g id="edge58" class="edge">
<title>56-&gt;58</title>
<path fill="none" stroke="black" d="M3553.33,-138.85C3569.04,-124.18 3592.25,-102.52 3613.08,-83.08"/>
<polygon fill="black" stroke="black" points="3615.2,-85.89 3620.12,-76.51 3610.42,-80.77 3615.2,-85.89"/>
</g>
</g>
</svg>