<svg xmlns="http://www.w3.org/2000/svg" xmlns:xlink="http://www.w3.org/1999/xlink" width="792pt" height="536pt" viewBox="0.00 0.00 792.32 535.80">
<g id="graph0" class="graph" transform="scale(1 1) rotate(0) translate(4 531.8)">
<title>DataCleaningSteps</title>
<polygon fill="white" stroke="none" points="-4,4 -4,-531.8 788.32,-531.8 788.32,4 -4,4"/>
<!-- Start -->
<g id="node1" class="node">
<title>Start</title>
<ellipse fill="lightblue" stroke="black" cx="74.54" cy="-318.4" rx="74.54" ry="18"/>
<text text-anchor="middle" x="74.54" y="-314.8" font-family="Arial" font-size="12.00">Start: Raw Dataset</text>
</g>
<!-- MissingAnalysis -->
<g id="node2" class="node">
<title>MissingAnalysis</title>
<polygon fill="lightgrey" stroke="black" points="329.77,-444.8 195.12,-444.8 195.12,-408 329.77,-408 329.77,-444.8"/>
<text text-anchor="middle" x="262.45" y="-430" font-family="Arial" font-size="12.00">Analyze Missingness</text>
<text text-anchor="middle" x="262.45" y="-415.6" font-family="Arial" font-size="12.00">(MCAR, MAR, MNAR)</text>
</g>
<!-- Start&#45;&gt;MissingAnalysis -->
<g id="edge12" class="edge">
<title>Start-&gt;MissingAnalysis</title>
<path fill="none" stroke="black" d="M104.59,-335.27C135.35,-353.15 184.22,-381.54 219.24,-401.88"/>
<polygon fill="black" stroke="black" points="217.46,-404.89 227.86,-406.89 220.97,-398.84 217.46,-404.89"/>
</g>
<!-- CorrelationAnalysis -->
<g id="node10" class="node">
<title>CorrelationAnalysis</title>
<polygon fill="none" stroke="black" points="339.81,-336.4 185.08,-336.4 185.08,-300.4 339.81,-300.4 339.81,-336.4"/>
<text text-anchor="middle" x="262.45" y="-314.8" font-family="Arial" font-size="12.00">Analyze High Correlations</text>
</g>
<!-- Start&#45;&gt;CorrelationAnalysis -->
<g id="edge16" class="edge">
<title>Start-&gt;CorrelationAnalysis</title>
<path fill="none" stroke="black" d="M149.55,-318.4C157.3,-318.4 165.24,-318.4 173.14,-318.4"/>
<polygon fill="black" stroke="black" points="173.13,-321.9 183.13,-318.4 173.13,-314.9 173.13,-321.9"/>
</g>
<!-- ZeroHandling -->
<g id="node13" class="node">
<title>ZeroHandling</title>
<polygon fill="none" stroke="black" points="325.81,-255.4 199.08,-255.4 199.08,-219.4 325.81,-219.4 325.81,-255.4"/>
<text text-anchor="middle" x="262.45" y="-233.8" font-family="Arial" font-size="12.00">Analyze Zero Values</text>
</g>
<!-- Start&#45;&gt;ZeroHandling -->
<g id="edge17" class="edge">
<title>Start-&gt;ZeroHandling</title>
<path fill="none" stroke="black" d="M111.83,-302.59C139.45,-290.55 177.88,-273.81 208.87,-260.31"/>
<polygon fill="black" stroke="black" points="209.91,-263.67 217.68,-256.47 207.12,-257.25 209.91,-263.67"/>
</g>
<!-- MCAR -->
<g id="node3" class="node">
<title>MCAR</title>
<polygon fill="none" stroke="black" points="544.22,-527.8 430.86,-527.8 430.86,-491 544.22,-491 544.22,-527.8"/>
<text text-anchor="middle" x="487.54" y="-513" font-family="Arial" font-size="12.00">MCAR</text>
<text text-anchor="middle" x="487.54" y="-498.6" font-family="Arial" font-size="12.00">(Random Missing)</text>
</g>
<!-- MissingAnalysis&#45;&gt;MCAR -->
<g id="edge13" class="edge">
<title>MissingAnalysis-&gt;MCAR</title>
<path fill="none" stroke="black" d="M297.06,-445.14C318.98,-456.78 348.49,-471.38 375.81,-481.4 389.68,-486.49 404.86,-490.98 419.41,-494.8"/>
<polygon fill="black" stroke="black" points="418.36,-498.15 428.91,-497.22 420.08,-491.36 418.36,-498.15"/>
</g>
<!-- MAR -->
<g id="node4" class="node">
<title>MAR</title>
<polygon fill="none" stroke="black" points="592.6,-472.8 382.49,-472.8 382.49,-436 592.6,-436 592.6,-472.8"/>
<text text-anchor="middle" x="487.54" y="-458" font-family="Arial" font-size="12.00">MAR</text>
<text text-anchor="middle" x="487.54" y="-443.6" font-family="Arial" font-size="12.00">(Missing depends on observed data)</text>
</g>
<!-- MissingAnalysis&#45;&gt;MAR -->
<g id="edge14" class="edge">
<title>MissingAnalysis-&gt;MAR</title>
<path fill="none" stroke="black" d="M330.08,-434.76C343.05,-436.39 356.99,-438.14 371.01,-439.9"/>
<polygon fill="black" stroke="black" points="370.4,-443.35 380.76,-441.12 371.27,-436.41 370.4,-443.35"/>
</g>
<!-- MNAR -->
<g id="node5" class="node">
<title>MNAR</title>
<polygon fill="none" stroke="black" points="599.27,-417.8 375.81,-417.8 375.81,-381 599.27,-381 599.27,-417.8"/>
<text text-anchor="middle" x="487.54" y="-403" font-family="Arial" font-size="12.00">MNAR</text>
<text text-anchor="middle" x="487.54" y="-388.6" font-family="Arial" font-size="12.00">(Missing depends on unobserved data)</text>
</g>
<!-- MissingAnalysis&#45;&gt;MNAR -->
<g id="edge15" class="edge">
<title>MissingAnalysis-&gt;MNAR</title>
<path fill="none" stroke="black" d="M330.08,-418.34C340.98,-417.02 352.56,-415.61 364.31,-414.19"/>
<polygon fill="black" stroke="black" points="364.59,-417.69 374.09,-413.01 363.75,-410.74 364.59,-417.69"/>
</g>
<!-- HandleMCAR -->
<g id="node6" class="node">
<title>HandleMCAR</title>
<polygon fill="none" stroke="black" points="563.55,-146.8 411.53,-146.8 411.53,-110 563.55,-110 563.55,-146.8"/>
<text text-anchor="middle" x="487.54" y="-132" font-family="Arial" font-size="12.00">Mean/Median Imputation</text>
<text text-anchor="middle" x="487.54" y="-117.6" font-family="Arial" font-size="12.00">OR Drop Rows (Small %)</text>
</g>
<!-- Output -->
<g id="node7" class="node">
<title>Output</title>
<ellipse fill="lightgreen" stroke="black" cx="709.8" cy="-183.4" rx="74.52" ry="26.02"/>
<text text-anchor="middle" x="709.8" y="-187" font-family="Arial" font-size="12.00">Cleaned Dataset</text>
<text text-anchor="middle" x="709.8" y="-172.6" font-family="Arial" font-size="12.00">Validation Step</text>
</g>
<!-- HandleMCAR&#45;&gt;Output -->
<g id="edge1" class="edge">
<title>HandleMCAR-&gt;Output</title>
<path fill="none" stroke="black" d="M564.03,-147.25C587.79,-153.18 613.94,-159.71 637.41,-165.57"/>
<polygon fill="black" stroke="black" points="636.32,-168.91 646.87,-167.94 638.01,-162.12 636.32,-168.91"/>
</g>
<!-- HandleMAR -->
<g id="node8" class="node">
<title>HandleMAR</title>
<polygon fill="none" stroke="black" points="559.23,-91.8 415.85,-91.8 415.85,-55 559.23,-55 559.23,-91.8"/>
<text text-anchor="middle" x="487.54" y="-77" font-family="Arial" font-size="12.00">Predictive Imputation</text>
<text text-anchor="middle" x="487.54" y="-62.6" font-family="Arial" font-size="12.00">(e.g., Regression, KNN)</text>
</g>
<!-- HandleMAR&#45;&gt;Output -->
<g id="edge2" class="edge">
<title>HandleMAR-&gt;Output</title>
<path fill="none" stroke="black" d="M559.71,-86.96C573.19,-90.76 586.93,-95.51 599.27,-101.4 626.35,-114.32 653.37,-134.45 673.8,-151.53"/>
<polygon fill="black" stroke="black" points="671.38,-154.07 681.26,-157.9 675.93,-148.75 671.38,-154.07"/>
</g>
<!-- HandleMNAR -->
<g id="node9" class="node">
<title>HandleMNAR</title>
<polygon fill="none" stroke="black" points="558.57,-36.8 416.52,-36.8 416.52,0 558.57,0 558.57,-36.8"/>
<text text-anchor="middle" x="487.54" y="-22" font-family="Arial" font-size="12.00">Add Indicator Variable</text>
<text text-anchor="middle" x="487.54" y="-7.6" font-family="Arial" font-size="12.00">Domain-driven Strategy</text>
</g>
<!-- HandleMNAR&#45;&gt;Output -->
<g id="edge3" class="edge">
<title>HandleMNAR-&gt;Output</title>
<path fill="none" stroke="black" d="M559.03,-28.94C573.06,-33 587.19,-38.62 599.27,-46.4 638.78,-71.84 670.45,-116.38 689.38,-147.76"/>
<polygon fill="black" stroke="black" points="686.22,-149.29 694.31,-156.14 692.26,-145.74 686.22,-149.29"/>
</g>
<!-- FeatureRemoval -->
<g id="node11" class="node">
<title>FeatureRemoval</title>
<polygon fill="none" stroke="black" points="574.25,-363.4 400.83,-363.4 400.83,-327.4 574.25,-327.4 574.25,-363.4"/>
<text text-anchor="middle" x="487.54" y="-341.8" font-family="Arial" font-size="12.00">Remove Redundant Features</text>
</g>
<!-- CorrelationAnalysis&#45;&gt;FeatureRemoval -->
<g id="edge4" class="edge">
<title>CorrelationAnalysis-&gt;FeatureRemoval</title>
<path fill="none" stroke="black" d="M340.22,-327.69C355.99,-329.6 372.8,-331.63 389.18,-333.62"/>
<polygon fill="black" stroke="black" points="388.59,-337.07 398.94,-334.8 389.43,-330.12 388.59,-337.07"/>
</g>
<!-- FeatureCombine -->
<g id="node12" class="node">
<title>FeatureCombine</title>
<polygon fill="none" stroke="black" points="575.23,-309.8 399.85,-309.8 399.85,-273 575.23,-273 575.23,-309.8"/>
<text text-anchor="middle" x="487.54" y="-295" font-family="Arial" font-size="12.00">Feature Transformation</text>
<text text-anchor="middle" x="487.54" y="-280.6" font-family="Arial" font-size="12.00">(e.g., PCA, Interaction Terms)</text>
</g>
<!-- CorrelationAnalysis&#45;&gt;FeatureCombine -->
<g id="edge5" class="edge">
<title>CorrelationAnalysis-&gt;FeatureCombine</title>
<path fill="none" stroke="black" d="M340.22,-309.11C355.79,-307.22 372.36,-305.22 388.54,-303.26"/>
<polygon fill="black" stroke="black" points="388.66,-306.77 398.17,-302.1 387.82,-299.82 388.66,-306.77"/>
</g>
<!-- FeatureRemoval&#45;&gt;Output -->
<g id="edge6" class="edge">
<title>FeatureRemoval-&gt;Output</title>
<path fill="none" stroke="black" d="M574.59,-330.42C583.26,-327.17 591.67,-323.21 599.27,-318.4 638.51,-293.57 670.14,-249.83 689.14,-218.87"/>
<polygon fill="black" stroke="black" points="691.95,-220.99 694.08,-210.61 685.94,-217.39 691.95,-220.99"/>
</g>
<!-- FeatureCombine&#45;&gt;Output -->
<g id="edge7" class="edge">
<title>FeatureCombine-&gt;Output</title>
<path fill="none" stroke="black" d="M575.53,-273.73C583.71,-271.02 591.75,-267.92 599.27,-264.4 626.33,-251.73 653.35,-231.85 673.78,-214.95"/>
<polygon fill="black" stroke="black" points="675.85,-217.78 681.24,-208.65 671.34,-212.43 675.85,-217.78"/>
</g>
<!-- ZeroIndicator -->
<g id="node14" class="node">
<title>ZeroIndicator</title>
<polygon fill="none" stroke="black" points="554.58,-255.4 420.51,-255.4 420.51,-219.4 554.58,-219.4 554.58,-255.4"/>
<text text-anchor="middle" x="487.54" y="-233.8" font-family="Arial" font-size="12.00">Add Indicator Variable</text>
</g>
<!-- ZeroHandling&#45;&gt;ZeroIndicator -->
<g id="edge8" class="edge">
<title>ZeroHandling-&gt;ZeroIndicator</title>
<path fill="none" stroke="black" d="M326.18,-237.4C351.9,-237.4 381.92,-237.4 408.99,-237.4"/>
<polygon fill="black" stroke="black" points="408.87,-240.9 418.87,-237.4 408.87,-233.9 408.87,-240.9"/>
</g>
<!-- ZeroTransform -->
<g id="node15" class="node">
<title>ZeroTransform</title>
<polygon fill="none" stroke="black" points="553.91,-201.8 421.18,-201.8 421.18,-165 553.91,-165 553.91,-201.8"/>
<text text-anchor="middle" x="487.54" y="-187" font-family="Arial" font-size="12.00">Apply Log/Scaling</text>
<text text-anchor="middle" x="487.54" y="-172.6" font-family="Arial" font-size="12.00">To Reduce Skewness</text>
</g>
<!-- ZeroHandling&#45;&gt;ZeroTransform -->
<g id="edge9" class="edge">
<title>ZeroHandling-&gt;ZeroTransform</title>
<path fill="none" stroke="black" d="M326.18,-222.21C352.12,-215.94 382.45,-208.6 409.71,-202"/>
<polygon fill="black" stroke="black" points="410.41,-205.43 419.31,-199.67 408.76,-198.63 410.41,-205.43"/>
</g>
<!-- ZeroIndicator&#45;&gt;Output -->
<g id="edge10" class="edge">
<title>ZeroIndicator-&gt;Output</title>
<path fill="none" stroke="black" d="M555.01,-221.22C569.59,-217.66 584.96,-213.91 599.27,-210.4 611.48,-207.41 624.46,-204.22 637.04,-201.12"/>
<polygon fill="black" stroke="black" points="637.63,-204.58 646.51,-198.79 635.96,-197.78 637.63,-204.58"/>
</g>
<!-- ZeroTransform&#45;&gt;Output -->
<g id="edge11" class="edge">
<title>ZeroTransform-&gt;Output</title>
<path fill="none" stroke="black" d="M554.33,-183.4C576.02,-183.4 600.46,-183.4 623.39,-183.4"/>
<polygon fill="black" stroke="black" points="623.35,-186.9 633.35,-183.4 623.35,-179.9 623.35,-186.9"/>
</g>
</g>
</svg>